<svg width="739" height="641" viewBox="0 0 739 641" fill="none" xmlns="http://www.w3.org/2000/svg">
<rect width="739" height="641" fill="#EAEAEA"/>
<path d="M327.254 255.634L360.021 249.418L371.245 255.634V359.423C371.245 371.763 368.303 382.433 362.428 391.425C356.544 400.417 348.355 407.352 337.869 412.231C327.374 417.109 315.191 419.544 301.32 419.544C287.45 419.544 275.11 417.109 264.615 412.231C254.12 407.352 239.825 400.417 233.996 391.425C228.168 382.433 231.386 371.772 231.386 359.423V255.634L264.154 249.418L275.377 255.634V355.623C275.377 360.631 276.484 365.104 278.698 369.033C280.911 372.962 283.982 376.033 287.911 378.246C291.839 380.459 296.312 381.566 301.32 381.566C306.328 381.566 310.865 380.459 314.766 378.246C318.668 376.033 321.729 372.962 323.943 369.033C326.156 365.104 327.263 360.631 327.263 355.623V255.634H327.254Z" fill="#1F1F1F" stroke="#1F1F1F" stroke-linecap="round" stroke-linejoin="round"/>
<path d="M430.848 255.634L457.427 302.779H458.691L485.592 255.634L523.413 249.418L534.637 255.634L486.219 336.644L536.528 417.653H486.219L474.996 411.438L458.691 369.558H457.427L429.898 417.653H379.903L368.68 411.438L429.585 336.644L381.49 255.634L419.634 249.418L430.857 255.634H430.848Z" fill="#1F1F1F" stroke="#1F1F1F" stroke-linecap="round" stroke-linejoin="round"/>
<path d="M316.033 249.418H360.014V353.207C360.014 365.547 357.072 376.217 351.198 385.209C345.314 394.201 337.124 401.136 326.638 406.015C316.143 410.893 303.96 413.328 290.09 413.328C276.219 413.328 263.88 410.893 253.385 406.015C242.89 401.136 234.728 394.201 228.899 385.209C223.071 376.217 220.156 365.556 220.156 353.207V249.418H264.138V349.407C264.138 354.415 265.245 358.888 267.458 362.817C269.671 366.746 272.743 369.817 276.671 372.03C280.6 374.243 285.073 375.35 290.081 375.35C295.088 375.35 299.626 374.243 303.527 372.03C307.428 369.817 310.49 366.746 312.703 362.817C314.917 358.888 316.023 354.415 316.023 349.407V249.418H316.033Z" fill="white" stroke="#1F1F1F" stroke-linecap="round" stroke-linejoin="round"/>
<path d="M419.64 249.418L446.219 296.563H447.482L474.384 249.418H523.429L475.011 330.428L525.32 411.438H475.011L447.482 363.343H446.219L418.69 411.438H368.695L418.377 330.428L370.282 249.418H419.649H419.64Z" fill="white" stroke="#1F1F1F" stroke-linecap="round" stroke-linejoin="round"/>
<path d="M103.626 221.32C102.86 221.32 102.242 220.703 102.242 219.937V212.559C102.242 211.794 102.86 211.176 103.626 211.176C104.391 211.176 105.009 211.794 105.009 212.559V219.937C105.009 220.703 104.391 221.32 103.626 221.32Z" fill="#FF5442"/>
<path d="M103.626 344.438C102.86 344.438 102.242 343.82 102.242 343.055V327.902C102.242 327.137 102.86 326.519 103.626 326.519C104.391 326.519 105.009 327.137 105.009 327.902V343.055C105.009 343.82 104.391 344.438 103.626 344.438ZM103.626 319.814C102.86 319.814 102.242 319.196 102.242 318.431V303.278C102.242 302.513 102.86 301.895 103.626 301.895C104.391 301.895 105.009 302.513 105.009 303.278V318.431C105.009 319.196 104.391 319.814 103.626 319.814ZM103.626 295.19C102.86 295.19 102.242 294.572 102.242 293.807V278.655C102.242 277.889 102.86 277.271 103.626 277.271C104.391 277.271 105.009 277.889 105.009 278.655V293.807C105.009 294.572 104.391 295.19 103.626 295.19ZM103.626 270.566C102.86 270.566 102.242 269.949 102.242 269.183V254.031C102.242 253.265 102.86 252.647 103.626 252.647C104.391 252.647 105.009 253.265 105.009 254.031V269.183C105.009 269.949 104.391 270.566 103.626 270.566ZM103.626 245.943C102.86 245.943 102.242 245.325 102.242 244.559V229.407C102.242 228.641 102.86 228.023 103.626 228.023C104.391 228.023 105.009 228.641 105.009 229.407V244.559C105.009 245.325 104.391 245.943 103.626 245.943Z" fill="#FF5442"/>
<path d="M103.626 361.289C102.86 361.289 102.242 360.671 102.242 359.906V352.528C102.242 351.762 102.86 351.145 103.626 351.145C104.391 351.145 105.009 351.762 105.009 352.528V359.906C105.009 360.671 104.391 361.289 103.626 361.289Z" fill="#FF5442"/>
<path d="M103.622 361.287C103.272 361.287 102.912 361.149 102.645 360.881L86.5331 344.769C85.989 344.225 85.989 343.349 86.5331 342.814C87.0772 342.27 87.9533 342.27 88.4882 342.814L103.622 357.948L118.756 342.814C119.3 342.27 120.177 342.27 120.711 342.814C121.256 343.358 121.256 344.235 120.711 344.769L104.6 360.881C104.332 361.149 103.973 361.287 103.622 361.287Z" fill="#FF5442"/>
<path d="M623.235 458.867C622.469 458.867 621.852 458.249 621.852 457.484V450.106C621.852 449.341 622.469 448.723 623.235 448.723C624 448.723 624.618 449.341 624.618 450.106V457.484C624.618 458.249 624 458.867 623.235 458.867Z" fill="#FF5442"/>
<path d="M623.235 441.937C622.469 441.937 621.852 441.319 621.852 440.554V425.272C621.852 424.507 622.469 423.889 623.235 423.889C624 423.889 624.618 424.507 624.618 425.272V440.554C624.618 441.319 624 441.937 623.235 441.937ZM623.235 417.111C622.469 417.111 621.852 416.493 621.852 415.727V400.446C621.852 399.68 622.469 399.062 623.235 399.062C624 399.062 624.618 399.68 624.618 400.446V415.727C624.618 416.493 624 417.111 623.235 417.111ZM623.235 392.284C622.469 392.284 621.852 391.666 621.852 390.9V375.619C621.852 374.853 622.469 374.236 623.235 374.236C624 374.236 624.618 374.853 624.618 375.619V390.9C624.618 391.666 624 392.284 623.235 392.284ZM623.235 367.457C622.469 367.457 621.852 366.839 621.852 366.074V350.792C621.852 350.027 622.469 349.409 623.235 349.409C624 349.409 624.618 350.027 624.618 350.792V366.074C624.618 366.839 624 367.457 623.235 367.457ZM623.235 342.63C622.469 342.63 621.852 342.012 621.852 341.247V325.965C621.852 325.2 622.469 324.582 623.235 324.582C624 324.582 624.618 325.2 624.618 325.965V341.247C624.618 342.012 624 342.63 623.235 342.63Z" fill="#FF5442"/>
<path d="M623.235 317.793C622.469 317.793 621.852 317.175 621.852 316.41V309.032C621.852 308.266 622.469 307.648 623.235 307.648C624 307.648 624.618 308.266 624.618 309.032V316.41C624.618 317.175 624 317.793 623.235 317.793Z" fill="#FF5442"/>
<path d="M639.343 326.537C638.993 326.537 638.633 326.399 638.366 326.131L623.232 310.997L608.098 326.131C607.553 326.675 606.677 326.675 606.142 326.131C605.598 325.587 605.598 324.711 606.142 324.176L622.254 308.064C622.798 307.52 623.674 307.52 624.209 308.064L640.321 324.176C640.865 324.72 640.865 325.596 640.321 326.131C640.053 326.399 639.694 326.537 639.343 326.537Z" fill="#FF5442"/>
<path d="M162.418 452.661H155.04C154.274 452.661 153.656 452.043 153.656 451.278C153.656 450.512 154.274 449.895 155.04 449.895H162.418C163.183 449.895 163.801 450.512 163.801 451.278C163.801 452.043 163.183 452.661 162.418 452.661Z" fill="#FF5442"/>
<path d="M252.435 548.272H237.614C236.849 548.272 236.231 547.654 236.231 546.888C236.231 546.123 236.849 545.505 237.614 545.505H252.435C253.2 545.505 253.818 546.123 253.818 546.888C253.818 547.654 253.2 548.272 252.435 548.272ZM228.346 548.272H222.139C219.022 548.272 216.024 547.617 213.212 546.316C212.52 545.994 212.216 545.173 212.538 544.481C212.861 543.789 213.682 543.485 214.374 543.808C216.818 544.933 219.428 545.505 222.139 545.505H228.346C229.111 545.505 229.729 546.123 229.729 546.888C229.729 547.654 229.111 548.272 228.346 548.272ZM206.562 540.783C206.156 540.783 205.751 540.608 205.483 540.266C202.477 536.504 200.817 531.782 200.817 526.949V525.575C200.817 524.81 201.435 524.192 202.2 524.192C202.966 524.192 203.583 524.81 203.583 525.575V526.931C203.583 531.21 204.985 535.213 207.641 538.533C208.121 539.132 208.019 539.999 207.429 540.479C207.171 540.682 206.867 540.783 206.562 540.783ZM202.209 517.699C201.444 517.699 200.826 517.081 200.826 516.316L200.844 501.495C200.844 500.73 201.462 500.112 202.228 500.112C202.993 500.112 203.611 500.73 203.611 501.495L203.593 516.316C203.593 517.081 202.975 517.699 202.209 517.699ZM202.228 493.61C201.462 493.61 200.844 492.992 200.844 492.227L200.863 477.406C200.863 476.641 201.481 476.023 202.246 476.023C203.012 476.023 203.63 476.641 203.63 477.406L203.611 492.227C203.611 492.992 202.993 493.61 202.228 493.61ZM202.016 469.54C201.342 469.54 200.752 469.051 200.651 468.368C199.941 463.776 197.543 459.635 193.891 456.711C193.291 456.232 193.199 455.365 193.679 454.765C194.158 454.166 195.025 454.074 195.624 454.553C199.821 457.91 202.578 462.669 203.39 467.953C203.51 468.71 202.984 469.411 202.237 469.531C202.163 469.54 202.099 469.549 202.025 469.549L202.016 469.54ZM186.457 453.087C186.365 453.087 186.264 453.078 186.171 453.059C184.908 452.792 183.608 452.653 182.307 452.653H171.665C170.899 452.653 170.281 452.036 170.281 451.27C170.281 450.505 170.899 449.887 171.665 449.887H182.307C183.801 449.887 185.295 450.043 186.743 450.348C187.49 450.505 187.97 451.242 187.813 451.989C187.675 452.644 187.103 453.087 186.457 453.087Z" fill="#FF5442"/>
<path d="M269.121 548.271H261.743C260.977 548.271 260.359 547.653 260.359 546.887C260.359 546.122 260.977 545.504 261.743 545.504H269.121C269.886 545.504 270.504 546.122 270.504 546.887C270.504 547.653 269.886 548.271 269.121 548.271Z" fill="#FF5442"/>
<path d="M255.839 564.109C255.488 564.109 255.129 563.971 254.861 563.704C254.317 563.159 254.317 562.283 254.861 561.748L269.995 546.614L254.861 531.48C254.317 530.936 254.317 530.06 254.861 529.525C255.405 528.981 256.281 528.981 256.816 529.525L272.928 545.637C273.186 545.895 273.334 546.246 273.334 546.614C273.334 546.983 273.186 547.334 272.928 547.592L256.816 563.704C256.549 563.971 256.189 564.109 255.839 564.109Z" fill="#FF5442"/>
<path d="M620.704 165.809C619.938 165.809 619.32 165.191 619.32 164.425V157.047C619.33 156.282 619.947 155.664 620.713 155.664C621.478 155.664 622.096 156.282 622.096 157.047V164.425C622.087 165.191 621.469 165.809 620.704 165.809Z" fill="#FF5442"/>
<path d="M620.722 148.998C619.956 148.998 619.338 148.38 619.338 147.614L619.357 132.517C619.357 131.752 619.975 131.134 620.74 131.134C621.506 131.134 622.124 131.752 622.124 132.517L622.105 147.614C622.105 148.38 621.487 148.998 620.722 148.998ZM620.75 124.466C619.984 124.466 619.366 123.848 619.366 123.083V118.868C619.366 115.447 618.444 112.126 616.692 109.231C616.295 108.576 616.507 107.727 617.153 107.331C617.808 106.934 618.656 107.146 619.053 107.792C621.072 111.112 622.142 114.939 622.142 118.84V123.073C622.142 123.839 621.515 124.457 620.75 124.457V124.466ZM611.287 103.264C611.038 103.264 610.789 103.199 610.559 103.061C607.635 101.253 604.269 100.303 600.82 100.303H596.744C595.978 100.303 595.36 99.6854 595.36 98.9199C595.36 98.1545 595.978 97.5366 596.744 97.5366H600.82C604.785 97.5366 608.659 98.634 612.016 100.709C612.661 101.115 612.864 101.963 612.468 102.609C612.21 103.033 611.758 103.264 611.287 103.264ZM587.309 100.294H572.212C571.446 100.294 570.829 99.6762 570.829 98.9107C570.829 98.1452 571.446 97.5273 572.212 97.5273H587.309C588.074 97.5273 588.692 98.1452 588.692 98.9107C588.692 99.6762 588.074 100.294 587.309 100.294ZM562.777 100.294H547.68C546.915 100.294 546.297 99.6762 546.297 98.9107C546.297 98.1452 546.915 97.5273 547.68 97.5273H562.777C563.543 97.5273 564.161 98.1452 564.161 98.9107C564.161 99.6762 563.543 100.294 562.777 100.294Z" fill="#FF5442"/>
<path d="M538.23 100.294H530.852C530.087 100.294 529.469 99.6762 529.469 98.9107C529.469 98.1452 530.087 97.5273 530.852 97.5273H538.23C538.996 97.5273 539.613 98.1452 539.613 98.9107C539.613 99.6762 538.996 100.294 538.23 100.294Z" fill="#FF5442"/>
<path d="M544.995 116.691C544.644 116.691 544.285 116.553 544.017 116.286L527.906 100.174C527.648 99.9158 527.5 99.5654 527.5 99.1965C527.5 98.8276 527.648 98.4771 527.906 98.2189L544.017 82.1073C544.561 81.5632 545.438 81.5632 545.972 82.1073C546.517 82.6514 546.517 83.5276 545.972 84.0625L530.839 99.1965L545.972 114.33C546.517 114.875 546.517 115.751 545.972 116.286C545.705 116.553 545.345 116.691 544.995 116.691Z" fill="#FF5442"/>
<path d="M353.031 65.865C352.68 65.865 352.321 65.7267 352.053 65.4592L336.919 50.3252L321.785 65.4592C321.241 66.0033 320.365 66.0033 319.83 65.4592C319.286 64.9151 319.286 64.0389 319.83 63.504L335.942 47.3925C336.486 46.8483 337.362 46.8483 337.897 47.3925L354.008 63.504C354.552 64.0482 354.552 64.9243 354.008 65.4592C353.741 65.7267 353.381 65.865 353.031 65.865Z" fill="#FF5442"/>
<path d="M159.273 153.137L203.781 154.179" stroke="#1F1F1F" stroke-linecap="round" stroke-linejoin="round"/>
<path d="M133.664 114.893L140.433 87.7695" stroke="#1F1F1F" stroke-linecap="round" stroke-linejoin="round"/>
<path d="M150.344 125.008L236.481 76.3047" stroke="#1F1F1F" stroke-linecap="round" stroke-linejoin="round"/>
<path d="M145.789 91.2188C158.828 91.2188 169.399 80.6485 169.399 67.6094C169.399 54.5703 158.828 44 145.789 44C132.75 44 122.18 54.5703 122.18 67.6094C122.18 80.6485 132.75 91.2188 145.789 91.2188Z" fill="white" stroke="#1F1F1F" stroke-linecap="round" stroke-linejoin="round"/>
<path d="M131.133 86.0999C135.163 89.3001 140.254 91.2091 145.787 91.2091C151.321 91.2091 156.061 89.4292 160.017 86.4411C157.38 80.8155 151.219 78.1133 146.239 78.1133C136.777 78.2055 133.199 82.1066 131.133 86.0999Z" fill="#1F1F1F" stroke="#1F1F1F" stroke-linecap="round" stroke-linejoin="round"/>
<path d="M149.775 51.34L140.968 51.3201C138.177 51.3137 135.909 53.5692 135.903 56.3579C135.896 59.1465 138.154 61.4123 140.945 61.4186L149.752 61.4386C152.544 61.4449 154.811 59.1894 154.818 56.4008C154.824 53.6121 152.567 51.3464 149.775 51.34Z" fill="#1F1F1F" stroke="#1F1F1F" stroke-linecap="round" stroke-linejoin="round"/>
<path d="M160.36 65.6912C159.217 60.7296 151.59 57.1605 151.59 57.1605L145.577 58.8205L139.573 57.1328C139.573 57.1328 131.937 60.665 130.766 65.6267C129.594 70.5883 134.104 74.3326 138.9 74.4894C140.025 73.5948 151.073 73.6225 152.199 74.5171C156.985 74.3787 161.513 70.6529 160.37 65.6912H160.36Z" fill="#1F1F1F" stroke="#1F1F1F" stroke-linecap="round" stroke-linejoin="round"/>
<path d="M153.987 67.8391C153.581 64.2516 149.569 61.531 149.569 61.531L145.816 60.9961H145.336L141.574 61.5125C141.574 61.5125 137.543 64.2147 137.119 67.8022C136.704 71.3898 137.949 75.6321 139.748 78.1221C141.445 80.4739 143.298 81.3315 145.327 81.599C145.327 81.6082 145.327 81.6267 145.327 81.6359C145.392 81.6359 145.447 81.6267 145.512 81.6174C145.576 81.6174 145.631 81.6267 145.696 81.6359V81.599C147.725 81.35 149.579 80.4923 151.294 78.1498C153.111 75.669 154.374 71.4359 153.978 67.8484L153.987 67.8391Z" fill="white" stroke="#1F1F1F" stroke-linecap="round" stroke-linejoin="round"/>
<path d="M138.555 68.0453C138.555 68.0453 141.773 67.4919 143.498 70.4339" stroke="#1F1F1F" stroke-linecap="round" stroke-linejoin="round"/>
<path d="M142.231 69.1154C142.231 69.7149 141.742 70.2036 141.143 70.2036C140.543 70.2036 140.055 69.7149 140.055 69.1154C140.055 68.7557 140.23 68.4422 140.497 68.2393C140.682 68.1009 141.991 68.5713 142.231 69.1154Z" fill="#1F1F1F"/>
<path d="M140.688 65.7277C140.688 65.7277 141.647 65.0729 142.606 65.1652" stroke="#1F1F1F" stroke-linecap="round" stroke-linejoin="round"/>
<path d="M152.538 68.0723C152.538 68.0723 149.32 67.5006 147.586 70.4333" stroke="#1F1F1F" stroke-linecap="round" stroke-linejoin="round"/>
<path d="M148.867 69.1232C148.867 69.7227 149.356 70.2115 149.955 70.2115C150.555 70.2115 151.044 69.7227 151.044 69.1232C151.044 68.7636 150.868 68.45 150.61 68.2471C150.426 68.1088 149.116 68.5791 148.867 69.114V69.1232Z" fill="#1F1F1F"/>
<path d="M150.426 65.7548C150.426 65.7548 149.467 65.1001 148.508 65.1831" stroke="#1F1F1F" stroke-linecap="round" stroke-linejoin="round"/>
<path d="M142.492 76.7422C142.492 76.7422 145.074 77.8028 148.763 76.7606" stroke="#1F1F1F" stroke-linecap="round" stroke-linejoin="round"/>
<path d="M157.785 65.0373C157.683 65.0373 157.582 65.0189 157.489 64.9728L131.75 52.2458C131.418 52.0798 131.279 51.6833 131.445 51.3512C131.611 51.0192 132.008 50.8809 132.34 51.0469L158.08 63.7738C158.412 63.9399 158.55 64.3364 158.384 64.6684C158.264 64.9082 158.034 65.0465 157.785 65.0373Z" fill="#F7F7F7"/>
<path d="M163.34 61.3747C163.34 61.3747 163.275 61.3747 163.238 61.3747L131.07 56.367C130.701 56.3116 130.452 55.9704 130.508 55.6015C130.563 55.2326 130.904 54.9836 131.273 55.0389L163.441 60.0467C163.81 60.1021 164.059 60.4433 164.004 60.8122C163.948 61.1442 163.662 61.384 163.34 61.384V61.3747Z" fill="#F7F7F7"/>
<path d="M162.268 57.1334C162.268 57.1334 162.204 57.1518 162.167 57.1518L129.796 60.5918C129.427 60.6287 129.095 60.3705 129.058 60.0016C129.021 59.6327 129.28 59.3007 129.648 59.2638L162.019 55.8238C162.388 55.7869 162.72 56.0452 162.757 56.4141C162.794 56.7461 162.582 57.0504 162.259 57.1334H162.268Z" fill="#F7F7F7"/>
<path d="M145.36 53.1694C137.041 53.3354 137.816 58.8504 141.118 62.1612C144.096 61.7001 145.222 63.6461 145.332 63.8582V63.8766C145.332 63.8766 145.332 63.8766 145.332 63.8674V63.8766V63.8582C145.452 63.6461 146.577 61.7001 149.556 62.1797C152.876 58.8781 153.669 53.3723 145.351 53.1602L145.36 53.1694Z" fill="#1F1F1F"/>
<path d="M145.332 63.8582C145.222 63.6461 144.096 61.7001 141.118 62.1612C137.816 58.8504 137.041 53.3354 145.36 53.1694L145.351 53.1602C153.669 53.3723 152.876 58.8781 149.556 62.1797C146.577 61.7001 145.452 63.6461 145.332 63.8582ZM145.332 63.8582V63.8766M145.332 63.8766C145.332 63.8766 145.332 63.8766 145.332 63.8674V63.8766Z" stroke="#F7F7F7" stroke-linecap="round" stroke-linejoin="round"/>
<path d="M220.563 174.441C233.602 174.441 244.172 163.871 244.172 150.832C244.172 137.793 233.602 127.223 220.563 127.223C207.523 127.223 196.953 137.793 196.953 150.832C196.953 163.871 207.523 174.441 220.563 174.441Z" fill="white" stroke="#1F1F1F" stroke-linecap="round" stroke-linejoin="round"/>
<path d="M238.384 166.309C234.833 158.156 227.188 156.957 220.796 156.957C209.942 157.04 204.768 161.255 202.352 165.847C206.677 171.095 213.234 174.434 220.566 174.434C227.898 174.434 234.058 171.279 238.384 166.299V166.309Z" fill="#1F1F1F" stroke="#1F1F1F" stroke-linecap="round" stroke-linejoin="round"/>
<path d="M211.245 142.089C211.245 142.089 204.9 134.158 218.632 133.392C232.364 132.627 231.175 138.206 231.119 139.036C231.064 139.866 229.348 142.661 229.348 142.661C229.348 142.661 214.196 140.908 211.236 142.089H211.245Z" fill="#1F1F1F" stroke="#1F1F1F" stroke-linecap="round" stroke-linejoin="round"/>
<path d="M227.656 153.967C227.97 153.921 234.979 152.602 235.376 148.747C235.781 144.892 233.587 140.558 227.656 138.861C221.717 137.164 220.398 137.847 220.398 137.847L221.026 151.883L227.656 153.977V153.967Z" fill="#1F1F1F" stroke="#1F1F1F" stroke-linecap="round" stroke-linejoin="round"/>
<path d="M213.991 153.967C213.677 153.921 206.668 152.602 206.272 148.747C205.875 144.892 208.061 140.558 213.991 138.861C219.93 137.164 221.249 137.847 221.249 137.847L220.622 151.883L213.991 153.977V153.967Z" fill="#1F1F1F" stroke="#1F1F1F" stroke-linecap="round" stroke-linejoin="round"/>
<path d="M213.814 149.487C213.814 149.487 209.82 146.057 209.82 150.068C209.82 151.738 210.826 152.761 210.669 154.532C210.512 156.303 212.338 157.88 213.574 156.072C214.81 154.264 215.068 152.153 213.804 149.487H213.814Z" fill="white" stroke="#1F1F1F" stroke-linecap="round" stroke-linejoin="round"/>
<path d="M226.237 149.854C226.237 149.854 229.197 145.685 231.134 149.402C231.909 150.886 229.981 153.081 230.424 154.815C230.867 156.549 229.004 157.914 227.5 156.328C225.997 154.741 225.407 152.694 226.237 149.863V149.854Z" fill="white" stroke="#1F1F1F" stroke-linecap="round" stroke-linejoin="round"/>
<path d="M229.769 146.574C229.705 145.117 229.382 143.955 229.05 143.097C228.543 141.797 227.335 140.773 225.776 140.376C224.199 139.971 222.705 140.017 222.271 140.035C222.17 140.035 222.059 140.035 221.958 140.035H219.293C219.191 140.035 219.08 140.035 218.979 140.035C218.546 140.007 217.042 139.971 215.474 140.376C213.907 140.782 212.708 141.797 212.201 143.097C211.869 143.945 211.555 145.117 211.481 146.574C211.463 146.924 211.5 147.284 211.592 147.625C212.108 149.599 212.634 150.475 212.569 152.07C212.505 153.786 210.485 163.737 220.547 165.572V165.6C220.547 165.6 220.593 165.6 220.621 165.59C220.648 165.59 220.667 165.6 220.694 165.6C220.694 165.6 220.694 165.581 220.694 165.572C230.756 163.737 228.746 153.786 228.672 152.07C228.607 150.475 229.133 149.599 229.649 147.625C229.742 147.284 229.778 146.924 229.76 146.574H229.769Z" fill="white" stroke="#1F1F1F" stroke-linecap="round" stroke-linejoin="round"/>
<path d="M221.828 147.254C221.828 147.254 223.617 146.756 224.595 146.055" stroke="#1F1F1F" stroke-linecap="round" stroke-linejoin="round"/>
<path d="M218.477 147.836C218.477 147.836 219.417 148.297 219.5 149.478C219.583 150.658 218.956 155.942 219.113 156.736" stroke="#1F1F1F" stroke-linecap="round" stroke-linejoin="round"/>
<path d="M222.023 150.058C222.023 150.058 223.195 149.781 224.698 149.717C225.86 149.661 226.708 149.855 227.234 149.947" stroke="#1F1F1F" stroke-linecap="round" stroke-linejoin="round"/>
<path d="M218.475 147.837C218.475 147.837 216.796 146.896 215.727 146.297" stroke="#1F1F1F" stroke-linecap="round" stroke-linejoin="round"/>
<path d="M218.768 149.948C218.768 149.948 217.375 149.782 216.462 149.773C215.251 149.754 214.43 149.773 214 149.828" stroke="#1F1F1F" stroke-linecap="round" stroke-linejoin="round"/>
<path d="M216.141 158.865C216.141 158.865 220.604 162.987 224.819 158.625" stroke="#1F1F1F" stroke-linecap="round" stroke-linejoin="round"/>
<path d="M211.484 142.358C211.484 142.358 207.297 135.81 220.475 135.902C228.914 135.293 229.643 137.793 229.956 139.563C230.27 141.334 228.914 141.749 228.914 141.749C228.914 141.749 222.311 140.246 220.107 141.648C218.059 140.458 212.12 141.002 211.474 142.358H211.484Z" fill="#1F1F1F" stroke="#F7F7F7" stroke-linecap="round" stroke-linejoin="round"/>
<path d="M216.172 151.512C216.682 151.512 217.094 151.1 217.094 150.59C217.094 150.081 216.682 149.668 216.172 149.668C215.663 149.668 215.25 150.081 215.25 150.59C215.25 151.1 215.663 151.512 216.172 151.512Z" fill="#1F1F1F"/>
<path d="M224.594 151.512C225.103 151.512 225.516 151.1 225.516 150.59C225.516 150.081 225.103 149.668 224.594 149.668C224.085 149.668 223.672 150.081 223.672 150.59C223.672 151.1 224.085 151.512 224.594 151.512Z" fill="#1F1F1F"/>
<path d="M251.68 93.7266C264.719 93.7266 275.289 83.1563 275.289 70.1172C275.289 57.0781 264.719 46.5078 251.68 46.5078C238.641 46.5078 228.07 57.0781 228.07 70.1172C228.07 83.1563 238.641 93.7266 251.68 93.7266Z" fill="white" stroke="#1F1F1F" stroke-linecap="round" stroke-linejoin="round"/>
<path d="M269.501 85.5937C265.95 77.4411 258.305 76.2422 251.914 76.2422C241.059 76.3252 235.885 80.5398 233.469 85.1326C237.794 90.3802 244.351 93.7187 251.683 93.7187C259.015 93.7187 265.175 90.5646 269.501 85.5845V85.5937Z" fill="#1F1F1F" stroke="#1F1F1F" stroke-linecap="round" stroke-linejoin="round"/>
<path d="M242.354 61.3665C242.354 61.3665 236.009 51.0005 249.741 50.2351C263.474 49.4696 262.284 57.4839 262.229 58.3139C262.173 59.1439 260.458 61.9383 260.458 61.9383C260.458 61.9383 245.305 60.1861 242.345 61.3665H242.354Z" fill="#1F1F1F" stroke="#1F1F1F" stroke-linecap="round" stroke-linejoin="round"/>
<path d="M258.766 73.244C259.079 73.1795 266.088 71.5102 266.485 66.6223C266.891 61.7345 264.696 56.2379 258.766 54.0891C252.827 51.9402 251.508 52.7979 251.508 52.7979L252.135 70.5972L258.766 73.244Z" fill="#1F1F1F" stroke="#1F1F1F" stroke-linecap="round" stroke-linejoin="round"/>
<path d="M245.1 73.244C244.787 73.1795 237.778 71.5102 237.381 66.6223C236.985 61.7345 239.17 56.2379 245.1 54.0891C251.04 51.9402 252.358 52.7979 252.358 52.7979L251.731 70.5972L245.1 73.244Z" fill="#1F1F1F" stroke="#1F1F1F" stroke-linecap="round" stroke-linejoin="round"/>
<path d="M244.924 68.7636C244.924 68.7636 239.953 65.1945 239.953 69.2063C239.953 70.8755 241.401 72.0837 241.779 73.8082C242.157 75.5328 243.448 77.156 244.684 75.3484C245.92 73.5408 246.178 71.4289 244.915 68.7636H244.924Z" fill="white" stroke="#1F1F1F" stroke-linecap="round" stroke-linejoin="round"/>
<path d="M257.346 69.1302C257.346 69.1302 261.026 64.9525 262.972 68.6691C263.747 70.1539 261.533 72.146 261.533 74.0827C261.533 75.8626 260.113 77.1814 258.61 75.5952C257.107 74.0089 256.516 71.9615 257.346 69.1302Z" fill="white" stroke="#1F1F1F" stroke-linecap="round" stroke-linejoin="round"/>
<path d="M260.879 65.8472C260.814 64.3901 260.491 63.228 260.159 62.3703C259.652 61.07 258.444 60.0463 256.885 59.6497C255.308 59.2439 253.814 59.2901 253.381 59.3085C253.279 59.3085 253.169 59.3085 253.067 59.3085H250.402C250.3 59.3085 250.19 59.3085 250.088 59.3085C249.655 59.2808 248.152 59.2439 246.584 59.6497C245.016 60.0555 243.817 61.07 243.31 62.3703C242.978 63.2188 242.664 64.3901 242.591 65.8472C242.572 66.1977 242.609 66.5573 242.701 66.8986C243.218 68.8722 243.743 69.7483 243.679 71.3438C243.614 73.0591 241.595 83.0101 251.656 84.8454V84.8731C251.656 84.8731 251.702 84.8731 251.73 84.8638C251.758 84.8638 251.776 84.8731 251.804 84.8731C251.804 84.8731 251.804 84.8546 251.804 84.8454C261.865 83.0101 259.855 73.0591 259.781 71.3438C259.717 69.7483 260.242 68.8722 260.759 66.8986C260.851 66.5573 260.888 66.1977 260.869 65.8472H260.879Z" fill="white" stroke="#1F1F1F" stroke-linecap="round" stroke-linejoin="round"/>
<path d="M253.586 66.5307C253.586 66.5307 254.73 64.9814 256.814 65.5716" stroke="#1F1F1F" stroke-linecap="round" stroke-linejoin="round"/>
<path d="M249.103 66.5307C249.103 66.5307 247.959 64.9814 245.875 65.5716" stroke="#1F1F1F" stroke-linecap="round" stroke-linejoin="round"/>
<path d="M250.914 68.7617C250.997 69.9514 250.748 74.9039 250.905 75.697" stroke="#1F1F1F" stroke-linecap="round" stroke-linejoin="round"/>
<path d="M253.133 70.2653C253.133 70.2653 254.313 69.1217 255.807 69.0018C256.96 68.9096 257.818 69.1402 258.343 69.2324" stroke="#1F1F1F" stroke-linecap="round" stroke-linejoin="round"/>
<path d="M249.877 70.156C249.877 70.156 248.466 69.2614 247.572 69.0585C246.004 68.6988 245.755 69.0308 245.109 69.1138" stroke="#1F1F1F" stroke-linecap="round" stroke-linejoin="round"/>
<path d="M255.928 77.9023C251.714 82.2646 247.25 78.1421 247.25 78.1421C247.25 78.1421 249.15 78.4465 251.704 78.4096C254.259 78.3727 255.938 77.9023 255.938 77.9023H255.928Z" stroke="#1F1F1F" stroke-linecap="round" stroke-linejoin="round"/>
<path d="M242.593 62.4836C242.593 62.4836 238.406 54.3771 251.585 54.4601C260.023 53.8514 260.752 57.9093 261.066 59.68C261.379 61.4507 260.023 61.8657 260.023 61.8657C260.023 61.8657 253.042 57.2729 251.216 63.3966C248.615 57.402 243.229 61.1187 242.584 62.4836H242.593Z" fill="#1F1F1F" stroke="#F7F7F7" stroke-linecap="round" stroke-linejoin="round"/>
<path d="M247.289 70.7898C247.799 70.7898 248.212 70.3769 248.212 69.8676C248.212 69.3582 247.799 68.9453 247.289 68.9453C246.78 68.9453 246.367 69.3582 246.367 69.8676C246.367 70.3769 246.78 70.7898 247.289 70.7898Z" fill="#1F1F1F"/>
<path d="M255.711 70.7898C256.221 70.7898 256.634 70.3769 256.634 69.8676C256.634 69.3582 256.221 68.9453 255.711 68.9453C255.202 68.9453 254.789 69.3582 254.789 69.8676C254.789 70.3769 255.202 70.7898 255.711 70.7898Z" fill="#1F1F1F"/>
<path d="M197.953 120.398C210.992 120.398 221.563 109.828 221.563 96.7891C221.563 83.75 210.992 73.1797 197.953 73.1797C184.914 73.1797 174.344 83.75 174.344 96.7891C174.344 109.828 184.914 120.398 197.953 120.398Z" fill="white" stroke="#1F1F1F" stroke-linecap="round" stroke-linejoin="round"/>
<path d="M197.957 120.391C203.002 120.391 207.677 118.804 211.514 116.102C210.103 109.895 207.843 104.159 207.843 104.159C207.843 104.159 193.171 103.532 188.753 105.192C186.309 106.105 185.147 111.556 184.594 116.231C188.393 118.85 193.005 120.391 197.966 120.391H197.957Z" fill="white" stroke="#1F1F1F" stroke-linecap="round" stroke-linejoin="round"/>
<path d="M186.047 101.62C186.047 101.62 186.36 106.609 191.866 108.113C197.372 109.616 203.763 109.182 206.484 107.043C209.195 104.913 210.053 101.371 210.053 101.371L186.056 101.611L186.047 101.62Z" fill="#1F1F1F" stroke="#1F1F1F" stroke-linecap="round" stroke-linejoin="round"/>
<path d="M199.528 105.809C191.957 106.464 184.57 104.592 183.445 97.2046C182.319 89.8174 184.33 82.9467 186.903 82.4303C189.476 81.9138 191.487 85.612 191.487 85.612C191.487 85.612 194.198 84.7728 197.749 84.6805C201.299 84.5883 202.517 85.1509 202.517 85.1509C202.517 85.1509 203.356 81.3605 206.353 81.6925C209.341 82.0153 213.694 92.4458 212.338 98.2375C210.983 104.029 207.1 105.154 199.528 105.809Z" fill="white" stroke="#1F1F1F" stroke-linecap="round" stroke-linejoin="round"/>
<path d="M201.829 93.5877C201.857 94.6667 197.845 97.664 197.845 97.664C197.845 97.664 193.778 94.8973 193.75 93.809C193.723 92.73 195.503 91.7986 197.734 91.734C199.966 91.6694 201.802 92.4995 201.829 93.5785V93.5877Z" fill="#F7F7F7" stroke="#1F1F1F" stroke-linecap="round" stroke-linejoin="round"/>
<path d="M189.359 100.09C189.359 100.09 198.757 104.462 197.844 97.4805" stroke="#1F1F1F" stroke-linecap="round" stroke-linejoin="round"/>
<path d="M206.55 99.6084C206.55 99.6084 197.411 104.496 197.927 97.4688" stroke="#1F1F1F" stroke-linecap="round" stroke-linejoin="round"/>
<path d="M187.266 92.0199C187.321 91.9277 190.955 87.8237 193.426 90.4337" stroke="#1F1F1F" stroke-linecap="round" stroke-linejoin="round"/>
<path d="M207.355 90.4429C207.281 90.3599 203.187 86.9937 201.148 89.9541" stroke="#1F1F1F" stroke-linecap="round" stroke-linejoin="round"/>
<path d="M199.261 112.927C200.992 112.927 202.396 111.524 202.396 109.792C202.396 108.06 200.992 106.656 199.261 106.656C197.529 106.656 196.125 108.06 196.125 109.792C196.125 111.524 197.529 112.927 199.261 112.927Z" fill="#F7F7F7" stroke="#1F1F1F" stroke-linecap="round" stroke-linejoin="round"/>
<path d="M91.8089 184.005C72.3772 164.979 72.0452 133.678 91.0711 114.246C110.097 94.8147 141.398 94.4827 160.83 113.509C180.261 132.534 180.593 163.835 161.567 183.267C142.541 202.699 111.241 203.031 91.8089 184.005Z" fill="#1F1F1F" stroke="#F7F7F7" stroke-linecap="round" stroke-linejoin="round"/>
<path d="M91.8086 184.006C89.0972 181.35 86.7547 178.454 84.7811 175.383L81.5072 178.731C79.4137 180.87 79.4506 184.329 81.5902 186.422L89.6137 194.28C91.7533 196.373 95.2117 196.336 97.3052 194.197L100.579 190.849C97.4712 188.949 94.52 186.662 91.8086 184.006Z" fill="#1F1F1F" stroke="#F7F7F7" stroke-linecap="round" stroke-linejoin="round"/>
<path d="M51.6097 225.064C48.0222 221.55 48.1513 215.749 51.8864 212.393L81.2414 186.062L89.975 194.621L64.2721 224.52C60.9982 228.329 55.1973 228.578 51.6097 225.064Z" fill="#1F1F1F" stroke="#F7F7F7" stroke-linecap="round" stroke-linejoin="round"/>
<path d="M79.6493 192.996L56.1875 214.392" stroke="#F7F7F7" stroke-linecap="round" stroke-linejoin="round"/>
<path d="M126.908 190.856C149.946 190.856 168.621 172.18 168.621 149.143C168.621 126.105 149.946 107.43 126.908 107.43C103.871 107.43 85.1953 126.105 85.1953 149.143C85.1953 172.18 103.871 190.856 126.908 190.856Z" fill="#FF5442" stroke="#1F1F1F" stroke-linecap="round" stroke-linejoin="round"/>
<path d="M101 181.834C108.12 187.479 117.112 190.863 126.906 190.863C136.7 190.863 145.056 187.718 152.046 182.434C147.38 172.492 136.497 167.715 127.699 167.715C110.969 167.89 104.652 174.779 101 181.834Z" fill="#1F1F1F" stroke="#1F1F1F" stroke-linecap="round" stroke-linejoin="round"/>
<path d="M137.445 120.415L114.877 120.364C111.877 120.357 109.44 122.784 109.433 125.784L109.417 132.774C109.41 135.774 111.837 138.212 114.837 138.218L137.404 138.27C140.404 138.276 142.842 135.85 142.848 132.85L142.864 125.859C142.871 122.859 140.445 120.422 137.445 120.415Z" fill="#1F1F1F" stroke="#1F1F1F" stroke-linecap="round" stroke-linejoin="round"/>
<path d="M152.651 146.027C150.623 135.32 137.158 127.628 137.158 127.628L126.524 131.216L115.909 127.582C115.909 127.582 102.408 135.209 100.333 145.907C98.2576 156.605 106.235 164.684 114.692 165.025C116.684 163.098 136.199 163.134 138.191 165.08C146.657 164.776 154.662 156.734 152.642 146.027H152.651Z" fill="#1F1F1F" stroke="#1F1F1F" stroke-linecap="round" stroke-linejoin="round"/>
<path d="M141.394 149.559C140.684 143.214 133.582 138.409 133.582 138.409L126.942 137.469H126.103L119.463 138.373C119.463 138.373 112.334 143.15 111.596 149.486C110.858 155.821 113.062 163.319 116.244 167.718C119.251 171.868 122.525 173.399 126.103 173.86C126.103 173.888 126.103 173.907 126.103 173.934C126.214 173.925 126.324 173.916 126.435 173.897C126.546 173.907 126.656 173.925 126.767 173.934V173.86C130.354 173.418 133.638 171.896 136.663 167.764C139.872 163.375 142.104 155.895 141.394 149.55V149.559Z" fill="white" stroke="#1F1F1F" stroke-linecap="round" stroke-linejoin="round"/>
<path d="M114.141 149.918C114.141 149.918 119.831 148.932 122.865 154.133" stroke="#1F1F1F" stroke-linecap="round" stroke-linejoin="round"/>
<path d="M120.619 151.81C120.619 152.87 119.752 153.728 118.692 153.728C117.631 153.728 116.773 152.861 116.773 151.801C116.773 151.164 117.078 150.611 117.557 150.26C117.88 150.021 120.195 150.851 120.619 151.81Z" fill="#1F1F1F"/>
<path d="M117.891 145.833C117.891 145.833 119.588 144.072 121.284 144.229" stroke="#1F1F1F" stroke-linecap="round" stroke-linejoin="round"/>
<path d="M138.837 149.975C138.837 149.975 133.146 148.96 130.094 154.152" stroke="#1F1F1F" stroke-linecap="round" stroke-linejoin="round"/>
<path d="M132.344 151.828C132.344 152.889 133.201 153.756 134.262 153.756C135.323 153.756 136.189 152.898 136.189 151.838C136.189 151.201 135.885 150.648 135.415 150.288C135.092 150.048 132.777 150.869 132.344 151.828Z" fill="#1F1F1F"/>
<path d="M135.097 145.869C135.097 145.869 133.4 144.025 131.703 144.181" stroke="#1F1F1F" stroke-linecap="round" stroke-linejoin="round"/>
<path d="M121.078 165.285C121.078 165.285 125.634 167.148 132.163 165.313" stroke="#1F1F1F" stroke-linecap="round" stroke-linejoin="round"/>
<path d="M148.108 144.597C147.933 144.597 147.757 144.561 147.591 144.478L102.097 121.984C101.516 121.698 101.267 120.988 101.562 120.398C101.848 119.817 102.558 119.568 103.148 119.863L148.643 142.356C149.224 142.642 149.473 143.352 149.178 143.943C148.975 144.358 148.55 144.607 148.117 144.607L148.108 144.597Z" fill="white"/>
<path d="M157.914 138.143C157.859 138.143 157.794 138.143 157.739 138.133L100.892 129.289C100.246 129.188 99.8037 128.588 99.9051 127.943C100.007 127.297 100.606 126.854 101.252 126.956L158.099 135.8C158.744 135.902 159.187 136.501 159.085 137.147C158.993 137.737 158.486 138.152 157.914 138.152V138.143Z" fill="white"/>
<path d="M156.035 130.643C155.98 130.661 155.924 130.67 155.86 130.68L98.6439 136.757C97.9984 136.831 97.4081 136.361 97.3436 135.706C97.2698 135.06 97.7401 134.47 98.3949 134.406L155.611 128.328C156.256 128.254 156.847 128.724 156.911 129.379C156.976 129.97 156.598 130.504 156.035 130.652V130.643Z" fill="white"/>
<path d="M126.154 123.637C126.154 123.637 126.154 123.637 126.145 123.637C126.135 123.637 126.145 123.637 126.135 123.637C111.435 123.932 112.8 133.68 118.638 139.536C123.904 138.725 125.886 142.155 126.089 142.543V142.58C126.089 142.58 126.089 142.58 126.089 142.561C126.089 142.57 126.099 142.58 126.099 142.58V142.543C126.301 142.165 128.303 138.734 133.569 139.573C139.425 133.735 140.845 123.996 126.145 123.637H126.154Z" fill="#1F1F1F"/>
<path d="M126.145 123.637C126.154 123.637 126.154 123.637 126.154 123.637H126.145ZM126.145 123.637C126.135 123.637 126.145 123.637 126.135 123.637C111.435 123.932 112.8 133.68 118.638 139.536C123.904 138.725 125.886 142.155 126.089 142.543V142.58C126.089 142.58 126.089 142.58 126.089 142.561C126.089 142.57 126.099 142.58 126.099 142.58V142.543C126.301 142.165 128.303 138.734 133.569 139.573C139.425 133.735 140.845 123.996 126.145 123.637Z" stroke="white" stroke-linecap="round" stroke-linejoin="round"/>
<path d="M124.234 147.648C124.234 147.648 125.369 149.004 124.705 157.775C124.327 162.829 127.554 161.03 127.554 161.03" stroke="#1F1F1F" stroke-linecap="round" stroke-linejoin="round"/>
<path d="M407.275 481.227C413.209 481.227 418.02 476.416 418.02 470.482C418.02 464.549 413.209 459.738 407.275 459.738C401.342 459.738 396.531 464.549 396.531 470.482C396.531 476.416 401.342 481.227 407.275 481.227Z" fill="white" stroke="#1F1F1F" stroke-linecap="round" stroke-linejoin="round"/>
<path d="M414.318 470.398C414.318 474.29 411.164 477.444 407.273 477.444C403.381 477.444 400.227 474.29 400.227 470.398" stroke="#1F1F1F" stroke-linecap="round" stroke-linejoin="round"/>
<path d="M404.586 465.234V467.807" stroke="#1F1F1F" stroke-linecap="round" stroke-linejoin="round"/>
<path d="M409.969 465.234V467.807" stroke="#1F1F1F" stroke-linecap="round" stroke-linejoin="round"/>
<path d="M307.422 541.082H289.789V591.464H307.422V541.082Z" fill="#1F1F1F" stroke="#F7F7F7" stroke-linecap="round" stroke-linejoin="round"/>
<path d="M311.543 591.464H307.43V541.082L311.543 545.555V591.464Z" fill="#1F1F1F" stroke="#F7F7F7" stroke-linecap="round" stroke-linejoin="round"/>
<path d="M343.555 500.27H325.922V591.452H343.555V500.27Z" fill="#1F1F1F" stroke="#F7F7F7" stroke-linecap="round" stroke-linejoin="round"/>
<path d="M347.677 591.461H343.555V500.27L347.677 504.742V591.461Z" fill="#1F1F1F" stroke="#F7F7F7" stroke-linecap="round" stroke-linejoin="round"/>
<path d="M379.032 526.473H361.398V591.454H379.032V526.473Z" fill="#1F1F1F" stroke="#F7F7F7" stroke-linecap="round" stroke-linejoin="round"/>
<path d="M383.16 591.463H379.047V526.473L383.16 530.946V591.463Z" fill="#1F1F1F" stroke="#F7F7F7" stroke-linecap="round" stroke-linejoin="round"/>
<path d="M415.165 489.648H397.531V591.455H415.165V489.648Z" fill="#FF5442" stroke="#F7F7F7" stroke-linecap="round" stroke-linejoin="round"/>
<path d="M419.286 591.464H415.164V489.648L419.286 494.121V591.464Z" fill="#FF5442" stroke="#F7F7F7" stroke-linecap="round" stroke-linejoin="round"/>
<path d="M443.822 590.707H264.547V592.985H443.822V590.707Z" fill="#1F1F1F"/>
<path d="M178.871 416.539H165.517C164.752 416.539 164.134 415.921 164.134 415.155C164.134 414.39 164.752 413.772 165.517 413.772H178.853C179.323 413.754 179.747 413.763 180.199 413.735C180.965 413.698 181.619 414.27 181.656 415.035C181.702 415.801 181.121 416.456 180.356 416.493C179.867 416.52 179.369 416.539 178.871 416.539ZM156.295 416.539H153.86C153.094 416.539 152.477 415.921 152.477 415.155C152.477 414.39 153.094 413.772 153.86 413.772H156.295C157.06 413.772 157.678 414.39 157.678 415.155C157.678 415.921 157.06 416.539 156.295 416.539ZM189.154 414.242C188.638 414.242 188.14 413.947 187.9 413.449C187.577 412.758 187.872 411.937 188.564 411.605C192.806 409.603 196.292 406.403 198.644 402.327C199.022 401.663 199.871 401.442 200.535 401.82C201.199 402.198 201.42 403.046 201.042 403.71C198.404 408.266 194.494 411.863 189.744 414.104C189.551 414.196 189.357 414.233 189.154 414.233V414.242ZM292.399 398.112C291.643 398.112 291.025 397.504 291.016 396.747C291.007 395.982 291.615 395.355 292.381 395.346C297.536 395.272 302.341 394.691 306.657 393.621C307.395 393.437 308.151 393.888 308.336 394.626C308.52 395.364 308.068 396.12 307.33 396.305C302.811 397.43 297.794 398.039 292.427 398.112H292.408H292.399ZM283.204 397.697C283.158 397.697 283.103 397.697 283.057 397.697C277.8 397.126 272.866 395.973 268.402 394.267C267.692 393.99 267.333 393.197 267.6 392.477C267.868 391.758 268.67 391.408 269.389 391.675C273.632 393.298 278.335 394.396 283.352 394.94C284.108 395.023 284.662 395.705 284.579 396.462C284.505 397.172 283.905 397.697 283.204 397.697ZM202.84 395.751C202.776 395.751 202.711 395.751 202.647 395.733C201.89 395.622 201.365 394.921 201.475 394.165C201.632 393.095 201.706 391.998 201.706 390.919V379.621C201.706 378.856 202.324 378.238 203.089 378.238C203.855 378.238 204.473 378.856 204.473 379.621V390.919C204.473 392.136 204.39 393.363 204.214 394.562C204.113 395.253 203.523 395.751 202.849 395.751H202.84ZM315.649 393.271C315.132 393.271 314.634 392.985 314.404 392.487C314.072 391.795 314.367 390.974 315.059 390.642C319.467 388.53 323.267 385.699 326.356 382.222C326.863 381.65 327.74 381.595 328.311 382.102C328.883 382.609 328.938 383.486 328.431 384.057C325.102 387.82 321.007 390.873 316.258 393.141C316.064 393.234 315.861 393.28 315.658 393.28L315.649 393.271ZM260.656 390.255C260.407 390.255 260.148 390.19 259.918 390.043C255.611 387.322 251.821 383.919 248.657 379.916C248.187 379.317 248.288 378.45 248.888 377.971C249.487 377.5 250.354 377.602 250.834 378.201C253.803 381.955 257.354 385.155 261.403 387.709C262.048 388.115 262.242 388.973 261.836 389.618C261.569 390.034 261.126 390.264 260.665 390.264L260.656 390.255ZM332.554 376.919C332.342 376.919 332.129 376.873 331.926 376.762C331.244 376.412 330.977 375.582 331.327 374.899C334.241 369.218 335.108 363.943 335.376 361.296C335.449 360.54 336.132 359.987 336.888 360.061C337.644 360.134 338.207 360.817 338.124 361.573C337.847 364.404 336.907 370.076 333.789 376.163C333.54 376.643 333.061 376.919 332.554 376.919ZM244.802 372.668C244.295 372.668 243.806 372.391 243.566 371.902C240.311 365.428 239.545 360.319 239.509 360.107C239.499 360.042 239.49 359.978 239.49 359.913V357.192C239.49 356.427 240.108 355.809 240.874 355.809C241.639 355.809 242.257 356.427 242.257 357.192V359.802C242.377 360.494 243.216 365.078 246.029 370.666C246.37 371.349 246.093 372.179 245.411 372.52C245.208 372.622 244.996 372.668 244.793 372.668H244.802ZM203.071 371.792C202.305 371.792 201.687 371.174 201.687 370.408V355.652C201.687 354.887 202.305 354.269 203.071 354.269C203.836 354.269 204.454 354.887 204.454 355.652V370.408C204.454 371.174 203.836 371.792 203.071 371.792ZM336.842 353.586C336.077 353.586 335.459 352.969 335.459 352.203V337.447C335.459 336.682 336.077 336.064 336.842 336.064C337.607 336.064 338.225 336.682 338.225 337.447V352.203C338.225 352.969 337.607 353.586 336.842 353.586ZM240.874 349.344C240.108 349.344 239.49 348.726 239.49 347.961V333.205C239.49 332.439 240.108 331.822 240.874 331.822C241.639 331.822 242.257 332.439 242.257 333.205V347.961C242.257 348.726 241.639 349.344 240.874 349.344ZM203.071 347.813C202.305 347.813 201.687 347.195 201.687 346.43V331.674C201.687 330.909 202.305 330.291 203.071 330.291C203.836 330.291 204.454 330.909 204.454 331.674V346.43C204.454 347.195 203.836 347.813 203.071 347.813ZM336.842 329.608C336.077 329.608 335.459 328.99 335.459 328.225V313.469C335.459 312.703 336.077 312.086 336.842 312.086C337.607 312.086 338.225 312.703 338.225 313.469V328.225C338.225 328.99 337.607 329.608 336.842 329.608ZM240.874 325.366C240.108 325.366 239.49 324.748 239.49 323.982V309.227C239.49 308.461 240.108 307.843 240.874 307.843C241.639 307.843 242.257 308.461 242.257 309.227V323.982C242.257 324.748 241.639 325.366 240.874 325.366ZM203.071 323.835C202.305 323.835 201.687 323.217 201.687 322.452V307.696C201.687 306.93 202.305 306.312 203.071 306.312C203.836 306.312 204.454 306.93 204.454 307.696V322.452C204.454 323.217 203.836 323.835 203.071 323.835ZM336.842 305.63C336.077 305.63 335.459 305.012 335.459 304.247V289.491C335.459 288.725 336.077 288.107 336.842 288.107C337.607 288.107 338.225 288.725 338.225 289.491V304.247C338.225 305.012 337.607 305.63 336.842 305.63ZM240.874 301.388C240.108 301.388 239.49 300.77 239.49 300.004V285.248C239.49 284.483 240.108 283.865 240.874 283.865C241.639 283.865 242.257 284.483 242.257 285.248V300.004C242.257 300.77 241.639 301.388 240.874 301.388ZM203.071 299.857C202.305 299.857 201.687 299.239 201.687 298.473V283.717C201.687 282.952 202.305 282.334 203.071 282.334C203.836 282.334 204.454 282.952 204.454 283.717V298.473C204.454 299.239 203.836 299.857 203.071 299.857ZM336.842 281.652C336.077 281.652 335.459 281.034 335.459 280.268V265.512C335.459 264.747 336.077 264.129 336.842 264.129C337.607 264.129 338.225 264.747 338.225 265.512V280.268C338.225 281.034 337.607 281.652 336.842 281.652ZM240.874 277.409C240.108 277.409 239.49 276.791 239.49 276.026V261.27C239.49 260.505 240.108 259.887 240.874 259.887C241.639 259.887 242.257 260.505 242.257 261.27V276.026C242.257 276.791 241.639 277.409 240.874 277.409ZM203.071 275.878C202.305 275.878 201.687 275.26 201.687 274.495V259.739C201.687 258.974 202.305 258.356 203.071 258.356C203.836 258.356 204.454 258.974 204.454 259.739V274.495C204.454 275.26 203.836 275.878 203.071 275.878ZM336.842 257.673C336.077 257.673 335.459 257.055 335.459 256.29V241.534C335.459 240.769 336.077 240.151 336.842 240.151C337.607 240.151 338.225 240.769 338.225 241.534V256.29C338.225 257.055 337.607 257.673 336.842 257.673ZM240.874 253.431C240.108 253.431 239.49 252.813 239.49 252.048V237.292C239.49 236.526 240.108 235.908 240.874 235.908C241.639 235.908 242.257 236.526 242.257 237.292V252.048C242.257 252.813 241.639 253.431 240.874 253.431ZM203.071 251.9C202.305 251.9 201.687 251.282 201.687 250.517V235.761C201.687 234.995 202.305 234.377 203.071 234.377C203.836 234.377 204.454 234.995 204.454 235.761V250.517C204.454 251.282 203.836 251.9 203.071 251.9ZM336.842 233.695C336.077 233.695 335.459 233.077 335.459 232.312V217.556C335.459 216.79 336.077 216.172 336.842 216.172C337.607 216.172 338.225 216.79 338.225 217.556V232.312C338.225 233.077 337.607 233.695 336.842 233.695ZM240.874 229.453C240.108 229.453 239.49 228.835 239.49 228.069V225.653C239.49 221.77 238.245 218.091 235.893 215.02C235.432 214.411 235.543 213.544 236.152 213.083C236.76 212.622 237.627 212.732 238.088 213.341C240.809 216.901 242.257 221.162 242.257 225.653V228.069C242.257 228.835 241.639 229.453 240.874 229.453ZM203.071 227.922C202.305 227.922 201.687 227.304 201.687 226.538V225.653C201.687 220.627 203.541 215.803 206.907 212.078C207.415 211.506 208.291 211.469 208.862 211.976C209.434 212.493 209.471 213.359 208.964 213.931C206.059 217.15 204.463 221.318 204.463 225.662V226.548C204.463 227.313 203.845 227.931 203.08 227.931L203.071 227.922ZM229.871 209.855C229.677 209.855 229.484 209.818 229.29 209.726C226.994 208.665 224.531 208.13 221.977 208.13C219.911 208.13 217.891 208.481 215.973 209.182C215.254 209.44 214.46 209.071 214.202 208.352C213.944 207.632 214.313 206.839 215.032 206.581C217.255 205.769 219.597 205.354 221.986 205.354C224.946 205.354 227.796 205.982 230.461 207.199C231.153 207.522 231.457 208.342 231.144 209.034C230.913 209.541 230.406 209.837 229.89 209.837L229.871 209.855ZM336.851 209.717C336.086 209.717 335.468 209.099 335.468 208.333V193.577C335.468 192.812 336.086 192.194 336.851 192.194C337.617 192.194 338.235 192.812 338.235 193.577V208.333C338.235 209.099 337.617 209.717 336.851 209.717ZM336.851 185.738C336.086 185.738 335.468 185.12 335.468 184.355V169.599C335.468 168.834 336.086 168.216 336.851 168.216C337.617 168.216 338.235 168.834 338.235 169.599V184.355C338.235 185.12 337.617 185.738 336.851 185.738ZM336.851 161.76C336.086 161.76 335.468 161.142 335.468 160.377V145.621C335.468 144.855 336.086 144.237 336.851 144.237C337.617 144.237 338.235 144.855 338.235 145.621V160.377C338.235 161.142 337.617 161.76 336.851 161.76ZM336.851 137.782C336.086 137.782 335.468 137.164 335.468 136.398V121.642C335.468 120.877 336.086 120.259 336.851 120.259C337.617 120.259 338.235 120.877 338.235 121.642V136.398C338.235 137.164 337.617 137.782 336.851 137.782ZM336.851 113.803C336.086 113.803 335.468 113.186 335.468 112.42V97.6642C335.468 96.8987 336.086 96.2808 336.851 96.2808C337.617 96.2808 338.235 96.8987 338.235 97.6642V112.42C338.235 113.186 337.617 113.803 336.851 113.803ZM336.851 89.8251C336.086 89.8251 335.468 89.2072 335.468 88.4418V73.6859C335.468 72.9204 336.086 72.3025 336.851 72.3025C337.617 72.3025 338.235 72.9204 338.235 73.6859V88.4418C338.235 89.2072 337.617 89.8251 336.851 89.8251ZM336.851 65.8468C336.086 65.8468 335.468 65.2289 335.468 64.4635V49.7076C335.468 48.9421 336.086 48.3242 336.851 48.3242C337.617 48.3242 338.235 48.9421 338.235 49.7076V64.4635C338.235 65.2289 337.617 65.8468 336.851 65.8468Z" fill="#FF5442"/>
<path d="M619.243 295.458C652.915 295.458 680.212 268.161 680.212 234.489C680.212 200.816 652.915 173.52 619.243 173.52C585.57 173.52 558.273 200.816 558.273 234.489C558.273 268.161 585.57 295.458 619.243 295.458Z" fill="#FF5442" stroke="#1F1F1F" stroke-linecap="round" stroke-linejoin="round"/>
<path d="M581.219 248.249C581.219 248.249 586.807 252.74 585.212 258.772C600.54 255.295 602.421 245.316 602.421 245.316L581.219 248.249Z" fill="#1F1F1F" stroke="#1F1F1F" stroke-linecap="round" stroke-linejoin="round"/>
<path d="M581.981 258.127C581.778 258.062 579.887 255.378 587.625 253.663C592.218 252.639 597.844 249.402 599.983 248.563C602.123 247.724 593.712 262.019 581.981 258.127Z" fill="#1F1F1F" stroke="#1F1F1F" stroke-linecap="round" stroke-linejoin="round"/>
<path d="M651.859 223.347C651.859 223.347 668.809 220.995 661.616 202.348C654.422 183.7 631.892 175.649 624.616 190.478C618.981 201.951 626.22 211.967 626.22 211.967L651.859 223.338V223.347Z" fill="#1F1F1F" stroke="#1F1F1F" stroke-linecap="round" stroke-linejoin="round"/>
<path d="M652.439 222.498C652.439 222.498 657.299 209.227 640.847 194.157C624.394 179.097 601.476 201.996 606.502 211.339C611.529 220.681 652.439 222.498 652.439 222.498Z" fill="#1F1F1F" stroke="#1F1F1F" stroke-linecap="round" stroke-linejoin="round"/>
<path d="M607.173 244.412C607.173 244.412 585.141 236.213 586.791 231.021C588.433 225.838 589.77 223.661 588.129 218.46C584.799 207.882 594.428 179.578 634.813 190.986C643.214 192.019 657.5 198.53 661.991 210.15C666.482 221.771 678.859 260.468 644.708 262.571C634.444 262.229 607.173 244.412 607.173 244.412Z" fill="#1F1F1F" stroke="#1F1F1F" stroke-linecap="round" stroke-linejoin="round"/>
<path d="M596.525 212.732C596.525 212.732 588.105 218.57 584.074 223.956C582.802 225.653 582.304 226.529 581.63 228.558C581.372 229.351 582.184 230.255 581.999 231.02C581.132 234.46 579.5 238.361 579.5 238.361L579.933 250.479C579.933 250.479 580.514 251.9 586.703 251.014C594.597 249.889 598.037 247.676 598.037 247.676C598.037 247.676 594.127 254.085 586.703 256.437C583.632 257.405 581.87 257.285 580.957 257.055C580.275 256.88 579.601 257.341 579.5 258.042C579.38 258.89 579.435 260.274 579.989 262.533C576.798 266.766 575.608 270.344 579.297 274.485C582.986 278.617 598.231 274.541 598.231 274.541C598.231 274.541 602.547 285.635 611.797 295.134C615.873 295.964 640.276 296.61 657.503 282.038C640.156 262.21 635.95 213.995 626.839 209.2C620.014 205.612 608.624 207.171 596.543 212.75L596.525 212.732Z" fill="#1F1F1F" stroke="#1F1F1F" stroke-linecap="round" stroke-linejoin="round"/>
<path d="M583.487 229.312C583.487 229.312 573.905 241.32 574.218 243.469C574.523 245.627 577.437 245.341 579.816 245.037C582.26 246.678 583.699 246.743 584.354 245.12C585.009 243.497 583.358 240.638 580.72 241.44" fill="#1F1F1F"/>
<path d="M583.487 229.312C583.487 229.312 573.905 241.32 574.218 243.469C574.523 245.627 577.437 245.341 579.816 245.037C582.26 246.678 583.699 246.743 584.354 245.12C585.009 243.497 583.358 240.638 580.72 241.44" stroke="#F7F7F7" stroke-linecap="round" stroke-linejoin="round"/>
<path d="M586.695 226.038C586.695 226.038 587.673 223.179 593.114 222.285C598.555 221.39 600.557 222.663 603.001 220.652C601.322 222.958 598.408 223.142 594.839 223.677C591.27 224.212 589.019 223.889 586.695 226.038Z" fill="#1F1F1F" stroke="#1F1F1F" stroke-linecap="round" stroke-linejoin="round"/>
<path d="M641.898 209.07C641.898 209.07 649.193 218.182 650.097 227.294L641.898 209.07Z" fill="#1F1F1F"/>
<path d="M641.898 209.07C641.898 209.07 649.193 218.182 650.097 227.294" stroke="#1F1F1F" stroke-linecap="round" stroke-linejoin="round"/>
<path d="M585.219 234.727C585.219 234.727 587.109 231.426 590.725 231.518C594.34 231.619 597.411 228.871 597.411 228.871C597.411 228.871 591.121 237.522 585.219 234.718V234.727Z" fill="#1F1F1F" stroke="#1F1F1F" stroke-linecap="round" stroke-linejoin="round"/>
<path d="M590.726 231.52C590.726 231.52 587.941 231.778 587.636 232.34C587.332 232.903 587.664 235.199 587.664 235.199C587.664 235.199 590.403 235.255 591.851 234C591.925 232.783 590.726 231.52 590.726 231.52Z" fill="#1F1F1F" stroke="#1F1F1F" stroke-linecap="round" stroke-linejoin="round"/>
<path d="M590.117 220.156C590.117 220.156 613.837 205.843 622.091 214.254C627.099 219.363 607.898 240.658 612.15 239.975C617.286 239.154 619.546 237.079 617.286 245.315C615.027 253.56 621.261 248.967 627.634 239.708C633.638 230.983 641.256 221.788 640.167 216.522C639.623 213.876 640.038 198.05 637.696 196.713C626.896 190.571 607.096 198.474 590.117 220.147V220.156Z" fill="#1F1F1F" stroke="#1F1F1F" stroke-linecap="round" stroke-linejoin="round"/>
<path d="M630.633 238.925C630.633 238.925 634.174 227.637 638.149 234.065C641.368 239.266 634.903 253.201 634.903 253.201" fill="#1F1F1F"/>
<path d="M630.633 238.925C630.633 238.925 634.174 227.637 638.149 234.065C641.368 239.266 634.903 253.201 634.903 253.201" stroke="#1F1F1F" stroke-linecap="round" stroke-linejoin="round"/>
<path d="M614.961 264.395C614.961 264.395 610.682 269.873 601.367 273.008" stroke="#F7F7F7" stroke-linecap="round" stroke-linejoin="round"/>
<path d="M598.734 205.832C598.734 205.832 606.177 196.038 624.861 191.805L598.734 205.832Z" fill="#1F1F1F"/>
<path d="M598.734 205.832C598.734 205.832 606.177 196.038 624.861 191.805" stroke="#1F1F1F" stroke-linecap="round" stroke-linejoin="round"/>
<path d="M655.18 231.05C654.968 233.208 653.953 235.218 652.34 236.666C652.34 236.666 652.34 236.675 652.33 236.666C652.33 236.685 652.321 236.694 652.312 236.712C652.017 237.727 651.583 238.704 651.03 239.608C649.997 241.305 648.577 242.735 646.88 243.768H646.871C646.659 243.887 646.456 244.017 646.234 244.127C646.197 244.146 646.16 244.173 646.124 244.192C645.46 244.533 644.759 244.81 644.039 245.031L644.067 245.068C644.547 245.603 644.989 246.045 645.303 246.829C646.649 250.214 641.143 252.418 636.68 250.417C631.82 248.24 630.381 246.405 630.243 243.565C630.224 242.873 630.243 242.19 630.326 241.499C628.555 241.324 626.821 240.816 625.235 240.005C622.966 242.163 619.72 242.947 616.723 242.052C613.725 241.167 611.429 238.741 610.7 235.698C610.055 235.864 609.4 235.975 608.736 236.039C608.007 236.094 607.27 236.085 606.541 236.021C600.03 235.375 595.28 229.565 595.926 223.054C596.101 221.283 596.673 219.577 597.614 218.065C598.001 217.419 598.453 216.81 598.96 216.257C598.914 216.073 598.886 215.897 598.859 215.713C598.803 215.326 598.803 214.938 598.84 214.551C599.089 212.107 601.026 210.17 603.47 209.93C603.47 209.728 603.479 209.525 603.498 209.322C603.544 208.824 603.645 208.344 603.811 207.874C604.798 204.904 607.712 203.014 610.829 203.327C611.835 203.419 612.794 203.751 613.651 204.286C615.376 201.944 618.06 200.487 620.965 200.321C623.87 200.155 626.701 201.289 628.684 203.419C629.864 201.888 631.792 201.151 633.692 201.492C635.592 201.842 637.132 203.217 637.694 205.061C638.174 205.061 638.644 205.07 639.115 205.116C645.515 205.753 650.357 211.185 650.246 217.613H650.283C652.109 217.797 653.704 218.941 654.461 220.61C655.226 222.279 655.042 224.225 653.981 225.728C654.931 227.333 655.346 229.196 655.162 231.05H655.18Z" fill="white" stroke="#1F1F1F" stroke-linecap="round" stroke-linejoin="round"/>
<path d="M599.63 215.823C598.708 213.785 600.515 211.719 602.341 211.046C604.168 210.373 606.141 211.074 607.156 212.651C607.58 213.305 608.631 212.697 608.207 212.042C606.842 209.921 604.094 209.026 601.751 209.985C599.243 211.009 597.361 213.748 598.588 216.432C598.911 217.142 599.953 216.524 599.639 215.823H599.63Z" fill="#1F1F1F"/>
<path d="M612.988 206.777C613.016 206.712 613.035 206.648 613.062 206.583C613.062 206.583 613.118 206.435 613.09 206.509C613.062 206.574 613.108 206.472 613.108 206.463C613.164 206.334 613.228 206.196 613.293 206.067C613.422 205.808 613.56 205.559 613.717 205.31C613.874 205.061 614.021 204.84 614.187 204.619C614.206 204.6 614.28 204.499 614.197 204.6C614.215 204.573 614.233 204.545 614.261 204.517C614.307 204.462 614.344 204.416 614.39 204.36C614.492 204.241 614.584 204.13 614.685 204.019C614.898 203.779 614.934 203.392 614.685 203.161C614.455 202.949 614.058 202.912 613.828 203.161C612.952 204.13 612.278 205.227 611.817 206.445C611.707 206.74 611.937 207.127 612.241 207.192C612.583 207.275 612.869 207.09 612.988 206.767V206.777Z" fill="#1F1F1F"/>
<path d="M627.559 206.481C627.587 206.398 627.615 206.315 627.642 206.232C627.652 206.195 627.67 206.167 627.679 206.13C627.679 206.121 627.735 205.983 627.707 206.057C627.679 206.13 627.744 205.974 627.744 205.974C627.762 205.937 627.772 205.909 627.79 205.872C627.827 205.798 627.864 205.715 627.901 205.642C628.067 205.309 628.27 204.996 628.482 204.692C628.694 204.387 628.823 204.221 629.1 203.908C629.33 203.649 629.57 203.41 629.837 203.179C630.077 202.967 630.068 202.534 629.837 202.321C629.579 202.082 629.238 202.1 628.98 202.321C628.389 202.829 627.882 203.437 627.44 204.074C626.997 204.71 626.628 205.411 626.397 206.149C626.305 206.453 626.508 206.822 626.822 206.896C627.135 206.97 627.467 206.794 627.569 206.472L627.559 206.481Z" fill="#1F1F1F"/>
<path d="M636.834 204.536C637.6 205.662 637.738 207.128 637.175 208.327C637.037 208.622 637.092 208.982 637.397 209.157C637.664 209.314 638.088 209.24 638.227 208.936C638.983 207.34 638.891 205.394 637.886 203.919C637.701 203.651 637.351 203.531 637.056 203.697C636.788 203.854 636.65 204.251 636.834 204.527V204.536Z" fill="#1F1F1F"/>
<path d="M647.647 218.377C648.726 218.063 649.943 218.054 651.041 218.266C652.267 218.506 653.152 219.179 653.733 220.295C654.222 221.245 654.287 222.509 654.167 223.551C654.065 224.464 653.715 225.552 652.82 225.976C651.843 226.447 650.579 226.188 649.537 226.152C648.753 226.124 648.753 227.341 649.537 227.369C650.727 227.415 652.009 227.609 653.152 227.157C654.361 226.677 655.052 225.469 655.283 224.242C655.799 221.522 654.886 218.137 651.963 217.243C650.515 216.8 648.79 216.791 647.333 217.206C646.586 217.418 646.9 218.589 647.656 218.377H647.647Z" fill="#1F1F1F"/>
<path d="M639.579 234.978C641.229 236.638 643.885 237.265 645.914 235.909C646.837 235.301 647.51 234.36 647.685 233.262C647.86 232.165 647.574 231.003 646.818 230.136C646.302 229.546 645.444 230.403 645.961 230.994C647.058 232.257 646.477 234.166 645.131 234.969C643.563 235.9 641.654 235.356 640.427 234.12C639.874 233.567 639.016 234.424 639.569 234.978H639.579Z" fill="#1F1F1F"/>
<path d="M646.379 235.55C647.265 236.104 648.261 236.5 649.257 236.814C650.253 237.127 651.304 237.386 652.328 237.284C652.651 237.256 652.936 237.026 652.936 236.675C652.936 236.371 652.66 236.039 652.328 236.067C651.396 236.15 650.483 235.919 649.579 235.633C648.676 235.347 647.8 234.988 646.997 234.49C646.333 234.075 645.724 235.126 646.389 235.541L646.379 235.55Z" fill="#1F1F1F"/>
<path d="M645.118 243.997C643.08 244.8 640.775 244.505 639.004 243.213C638.737 243.02 638.331 243.167 638.174 243.435C637.999 243.739 638.128 244.071 638.395 244.265C640.397 245.722 643.145 246.072 645.441 245.169C645.746 245.049 645.958 244.763 645.865 244.422C645.782 244.136 645.423 243.877 645.118 243.997Z" fill="#1F1F1F"/>
<path d="M629.821 242.089C630.854 242.126 631.878 241.95 632.855 241.609C633.833 241.268 634.773 240.788 635.723 240.346C636.018 240.207 636.092 239.783 635.945 239.516C635.769 239.211 635.41 239.156 635.115 239.294C633.408 240.097 631.767 240.945 629.83 240.871C629.046 240.844 629.046 242.061 629.83 242.089H629.821Z" fill="#1F1F1F"/>
<path d="M611.55 236.843C610.776 233.458 611.32 229.871 613.044 226.864C613.432 226.182 612.39 225.573 611.993 226.256C610.102 229.548 609.521 233.468 610.379 237.166C610.554 237.922 611.726 237.609 611.55 236.843Z" fill="#1F1F1F"/>
<path d="M607.204 224.288C606.844 225.837 606.549 227.672 607.324 229.148C607.969 230.393 609.288 231.232 610.662 231.408C610.985 231.454 611.271 231.103 611.271 230.799C611.271 230.439 610.994 230.236 610.662 230.19C609.703 230.07 608.735 229.323 608.338 228.447C607.803 227.285 608.108 225.791 608.384 224.601C608.56 223.845 607.388 223.513 607.213 224.279L607.204 224.288Z" fill="#1F1F1F"/>
<path d="M635.205 209.994C638.635 208.481 642.629 210.464 643.625 214.033C643.837 214.78 645.008 214.467 644.796 213.71C644.252 211.764 642.924 210.058 641.135 209.108C639.096 208.029 636.689 208.02 634.596 208.942C633.886 209.256 634.504 210.298 635.205 209.994Z" fill="#1F1F1F"/>
<path d="M607.058 215.963C607.731 213.215 609.742 211.454 612.324 210.495C613.606 210.015 615.091 209.6 616.391 210.246C617.507 210.799 618.19 211.832 618.42 213.04C618.568 213.805 619.739 213.483 619.591 212.717C619.324 211.315 618.494 210.061 617.267 209.342C615.755 208.447 614.03 208.641 612.435 209.176C610.839 209.711 609.299 210.458 608.1 211.666C607.012 212.763 606.256 214.147 605.887 215.641C605.702 216.397 606.874 216.72 607.058 215.963Z" fill="#1F1F1F"/>
<path d="M638.642 218.553C640.8 217.953 643.382 218.35 644.71 220.314C645.808 221.947 645.54 224.326 643.696 225.294C643.004 225.654 643.613 226.706 644.304 226.346C646.066 225.424 646.914 223.284 646.481 221.375C646.02 219.337 644.249 217.778 642.266 217.28C640.966 216.957 639.601 217.031 638.31 217.382C637.563 217.594 637.876 218.765 638.632 218.553H638.642Z" fill="#1F1F1F"/>
<path d="M598.432 216.016C598.617 217.252 599.281 218.432 600.212 219.271C600.461 219.493 600.719 219.696 601.005 219.871C601.291 220.046 601.632 220.277 601.983 220.267C602.296 220.267 602.582 220.074 602.675 219.769C602.767 219.465 602.638 219.179 602.389 219.022C601.9 218.718 601.208 219.124 601.393 219.723C601.485 220.028 601.817 220.249 602.14 220.147C602.463 220.046 602.665 219.723 602.564 219.4V219.373C602.564 219.483 602.564 219.585 602.564 219.696V219.677C602.481 219.797 602.379 219.917 602.287 220.037H602.306C602.204 220.055 602.103 220.083 602.001 220.111C601.881 220.111 601.771 220.064 601.679 219.981L601.522 219.714V219.732C601.522 219.622 601.522 219.52 601.522 219.41V219.437C601.568 219.345 601.614 219.262 601.669 219.17C601.817 219.032 601.964 218.995 602.094 219.068C602.14 219.087 602.13 219.087 602.075 219.059C602.029 219.041 601.992 219.013 601.946 218.995C601.854 218.949 601.771 218.893 601.679 218.847C601.596 218.801 601.522 218.746 601.448 218.69C601.402 218.663 601.356 218.626 601.31 218.589C601.374 218.644 601.31 218.589 601.282 218.561C601.134 218.441 600.987 218.303 600.849 218.165C600.775 218.091 600.71 218.017 600.636 217.934C600.609 217.897 600.572 217.86 600.544 217.823C600.544 217.823 600.434 217.676 600.498 217.768C600.268 217.455 600.065 217.113 599.908 216.754C599.954 216.864 599.889 216.698 599.88 216.689C599.862 216.643 599.843 216.606 599.834 216.56C599.797 216.468 599.77 216.366 599.742 216.265C599.687 216.071 599.64 215.868 599.613 215.665C599.567 215.352 599.152 215.149 598.866 215.241C598.524 215.352 598.386 215.647 598.442 215.988L598.432 216.016Z" fill="#1F1F1F"/>
<path d="M618.928 223.885C618.66 223.774 622.331 227.426 624.12 232.84C626.426 227.537 631.941 220.132 636.054 216.23C630.567 219.587 624.314 226.541 624.314 226.541C624.314 226.541 620.459 224.503 618.928 223.885Z" fill="#FF5442" stroke="#FF5442" stroke-linecap="round" stroke-linejoin="round"/>
<path d="M625.069 235.22C629.918 235.22 633.849 231.289 633.849 226.44C633.849 221.591 629.918 217.66 625.069 217.66C620.22 217.66 616.289 221.591 616.289 226.44C616.289 231.289 620.22 235.22 625.069 235.22Z" stroke="#FF5442" stroke-linecap="round" stroke-linejoin="round"/>
<path d="M690.271 590.707H481.484V592.985H690.271V590.707Z" fill="#1F1F1F"/>
<path d="M657.955 469.32H513.79C509.695 469.32 506.375 472.64 506.375 476.735V569.909C506.375 574.004 509.695 577.324 513.79 577.324H657.955C662.05 577.324 665.37 574.004 665.37 569.909V476.735C665.37 472.64 662.05 469.32 657.955 469.32Z" fill="#1F1F1F" stroke="#F7F7F7" stroke-linecap="round" stroke-linejoin="round"/>
<path d="M669.195 577.324H502.545C501.18 577.324 500.148 578.569 500.397 579.916L502.047 588.649C502.241 589.682 503.145 590.429 504.196 590.429H667.544C668.595 590.429 669.49 589.682 669.693 588.649L671.343 579.916C671.602 578.569 670.569 577.324 669.195 577.324Z" fill="#1F1F1F" stroke="#F7F7F7" stroke-linecap="round" stroke-linejoin="round"/>
<path d="M568.125 577.324L569.684 584.103C569.757 584.49 570.089 584.767 570.486 584.767H601.27C601.658 584.767 601.999 584.49 602.073 584.103L603.631 577.324H568.134H568.125Z" stroke="#F7F7F7" stroke-linecap="round" stroke-linejoin="round"/>
<path d="M581.695 473.367H592.273" stroke="#F7F7F7" stroke-linecap="round" stroke-linejoin="round"/>
<path d="M657.662 477.445H514.078V569.633H657.662V477.445Z" fill="#FF5442" stroke="#F7F7F7" stroke-linecap="round" stroke-linejoin="round"/>
<path d="M555.798 547.175C555.798 547.175 548.696 532.779 555.742 529.681C562.788 526.582 573.348 524.221 573.219 514.74C573.09 505.26 576.161 497.245 581.925 502.714C587.689 508.183 580.514 514.74 590.889 514.74C601.264 514.74 609.463 516.741 605.746 526.766C602.03 536.791 595.371 530.594 594.735 543.892C594.098 557.191 590.76 556.278 585.512 554.092C580.265 551.907 577.83 561.378 572.195 559.561C566.56 557.735 570.406 555.734 564.513 557.007C558.62 558.279 556.96 554.636 555.807 547.166L555.798 547.175Z" fill="#1F1F1F" stroke="#1F1F1F" stroke-linecap="round" stroke-linejoin="round"/>
<path d="M548.115 553.228C547.681 556.281 558.103 557.968 560.925 554.252C563.747 550.535 561.054 541.958 566.818 548.359C572.582 554.759 575.911 556.041 577.064 551.181C578.217 546.32 577.322 547.464 582.957 547.086C588.592 546.708 589.874 543.111 586.545 536.074C583.215 529.038 581.039 523.781 578.088 530.439C575.136 537.098 577.064 543.627 571.171 540.685C565.278 537.744 565.536 532.358 561.441 534.027C557.346 535.696 557.983 541.838 557.088 545.039C556.194 548.239 548.76 548.755 548.124 553.237L548.115 553.228Z" fill="white"/>
<path d="M605.496 557.589C600.386 554.61 594.226 558.742 599.344 554.001C604.463 549.261 607.672 549.907 609.074 545.544C610.476 541.182 616.12 534.404 617.014 543.239C617.909 552.074 612.532 551.05 615.225 556.049C617.918 561.047 611.638 561.176 605.496 557.589Z" fill="#F7F7F7" stroke="#F7F7F7" stroke-linecap="round" stroke-linejoin="round"/>
<path d="M522.633 538.121H546.574L553.749 552.204" stroke="#F7F7F7" stroke-linecap="round" stroke-linejoin="round"/>
<path d="M525.833 522.977L527.632 526.177H527.715L529.541 522.977H532.861L529.578 528.464L532.99 533.951H529.578L527.715 530.686H527.632L525.769 533.951H522.375L525.741 528.464L522.476 522.977H525.824H525.833Z" fill="#1F1F1F"/>
<path d="M534.711 525.614V525.033C534.711 524.563 534.812 524.129 535.015 523.733C535.218 523.336 535.513 523.022 535.901 522.792C536.288 522.561 536.749 522.441 537.302 522.441C537.856 522.441 538.345 522.561 538.741 522.792C539.128 523.032 539.424 523.345 539.627 523.733C539.829 524.12 539.931 524.563 539.931 525.033V525.614C539.931 526.084 539.829 526.518 539.627 526.905C539.424 527.292 539.128 527.606 538.741 527.837C538.354 528.067 537.874 528.187 537.312 528.187C536.749 528.187 536.279 528.067 535.891 527.837C535.504 527.597 535.209 527.283 535.015 526.896C534.822 526.508 534.72 526.075 534.72 525.614H534.711ZM535.624 533.96L543.177 522.976H544.699L537.146 533.96H535.624ZM536.602 525.033V525.614C536.602 525.826 536.648 526.029 536.749 526.223C536.851 526.416 537.035 526.508 537.302 526.508C537.598 526.508 537.791 526.416 537.893 526.223C537.985 526.029 538.031 525.826 538.031 525.614V525.033C538.031 524.821 537.985 524.609 537.893 524.415C537.8 524.212 537.607 524.111 537.293 524.111C537.007 524.111 536.823 524.212 536.731 524.415C536.638 524.618 536.592 524.821 536.592 525.033H536.602ZM540.466 531.894V531.313C540.466 530.852 540.567 530.419 540.77 530.022C540.973 529.626 541.268 529.312 541.655 529.072C542.043 528.832 542.513 528.713 543.066 528.713C543.62 528.713 544.109 528.833 544.505 529.063C544.892 529.303 545.188 529.616 545.391 530.004C545.593 530.4 545.695 530.834 545.695 531.304V531.885C545.695 532.346 545.593 532.78 545.391 533.176C545.188 533.573 544.892 533.886 544.505 534.126C544.118 534.366 543.638 534.486 543.076 534.486C542.513 534.486 542.043 534.366 541.655 534.126C541.268 533.886 540.973 533.573 540.779 533.176C540.576 532.78 540.484 532.356 540.484 531.885L540.466 531.894ZM542.329 531.313V531.894C542.329 532.097 542.384 532.3 542.485 532.494C542.587 532.697 542.781 532.789 543.057 532.789C543.352 532.789 543.546 532.697 543.647 532.503C543.74 532.309 543.786 532.107 543.786 531.894V531.313C543.786 531.101 543.74 530.889 543.647 530.695C543.555 530.493 543.362 530.391 543.048 530.391C542.762 530.391 542.578 530.493 542.476 530.695C542.375 530.898 542.319 531.101 542.319 531.313H542.329Z" fill="#1F1F1F"/>
<path d="M649.067 538.121H620.127L612.961 552.204" stroke="#F7F7F7" stroke-linecap="round" stroke-linejoin="round"/>
<path d="M626.109 522.977H629.439L631.587 527.44H631.67L633.819 522.977H637.149L633.118 530.502V533.951H630.158V530.502L626.128 522.977H626.109Z" fill="#1F1F1F"/>
<path d="M638.648 525.614V525.033C638.648 524.563 638.75 524.129 638.953 523.733C639.156 523.336 639.451 523.022 639.838 522.792C640.225 522.552 640.687 522.441 641.24 522.441C641.793 522.441 642.282 522.561 642.679 522.792C643.075 523.022 643.361 523.345 643.564 523.733C643.767 524.129 643.868 524.563 643.868 525.033V525.614C643.868 526.084 643.767 526.518 643.564 526.905C643.361 527.292 643.066 527.606 642.679 527.837C642.291 528.067 641.812 528.187 641.249 528.187C640.687 528.187 640.216 528.067 639.829 527.837C639.442 527.606 639.146 527.283 638.953 526.896C638.75 526.508 638.658 526.075 638.658 525.614H638.648ZM639.561 533.96L647.115 522.976H648.636L641.083 533.96H639.561ZM640.539 525.033V525.614C640.539 525.826 640.585 526.029 640.687 526.223C640.788 526.416 640.972 526.508 641.24 526.508C641.535 526.508 641.729 526.416 641.83 526.223C641.922 526.029 641.968 525.826 641.968 525.614V525.033C641.968 524.821 641.922 524.609 641.83 524.415C641.738 524.221 641.544 524.111 641.231 524.111C640.945 524.111 640.76 524.212 640.668 524.415C640.576 524.618 640.53 524.821 640.53 525.033H640.539ZM644.403 531.894V531.313C644.403 530.852 644.505 530.419 644.708 530.022C644.91 529.626 645.206 529.312 645.593 529.072C645.98 528.832 646.451 528.713 647.004 528.713C647.557 528.713 648.046 528.833 648.443 529.063C648.839 529.294 649.125 529.616 649.328 530.004C649.531 530.4 649.632 530.834 649.632 531.304V531.885C649.632 532.346 649.531 532.78 649.328 533.176C649.125 533.573 648.83 533.886 648.443 534.126C648.055 534.366 647.576 534.486 647.013 534.486C646.451 534.486 645.98 534.366 645.593 534.126C645.206 533.886 644.91 533.573 644.717 533.176C644.514 532.78 644.422 532.356 644.422 531.885L644.403 531.894ZM646.266 531.313V531.894C646.266 532.097 646.321 532.3 646.423 532.494C646.524 532.697 646.718 532.789 646.995 532.789C647.29 532.789 647.484 532.697 647.585 532.503C647.677 532.309 647.723 532.107 647.723 531.894V531.313C647.723 531.101 647.677 530.889 647.585 530.695C647.493 530.502 647.299 530.391 646.985 530.391C646.7 530.391 646.515 530.493 646.414 530.695C646.312 530.898 646.257 531.101 646.257 531.313H646.266Z" fill="#1F1F1F"/>
<path d="M622.642 502.688H595.888L585.328 520.948" stroke="#F7F7F7" stroke-linecap="round" stroke-linejoin="round"/>
<path d="M600.195 498.592V496.941L605.388 490.015H600.214V487.617H609.178V489.268L603.986 496.194H609.16V498.601H600.195V498.592Z" fill="#1F1F1F"/>
<path d="M611.195 490.247V489.666C611.195 489.195 611.297 488.762 611.5 488.365C611.703 487.969 611.998 487.655 612.385 487.425C612.772 487.185 613.233 487.074 613.787 487.074C614.34 487.074 614.829 487.194 615.226 487.425C615.622 487.655 615.908 487.978 616.111 488.365C616.314 488.762 616.415 489.195 616.415 489.666V490.247C616.415 490.717 616.314 491.151 616.111 491.538C615.908 491.925 615.613 492.239 615.226 492.469C614.838 492.7 614.359 492.82 613.796 492.82C613.233 492.82 612.763 492.7 612.376 492.469C611.988 492.239 611.693 491.916 611.5 491.529C611.297 491.141 611.205 490.708 611.205 490.247H611.195ZM612.108 498.593L619.662 487.609H621.183L613.63 498.593H612.108ZM613.086 489.666V490.247C613.086 490.459 613.132 490.662 613.233 490.855C613.335 491.049 613.519 491.141 613.787 491.141C614.082 491.141 614.276 491.049 614.377 490.855C614.469 490.662 614.515 490.459 614.515 490.247V489.666C614.515 489.454 614.469 489.242 614.377 489.048C614.285 488.854 614.091 488.743 613.778 488.743C613.492 488.743 613.307 488.845 613.215 489.048C613.123 489.251 613.077 489.454 613.077 489.666H613.086ZM616.95 496.527V495.946C616.95 495.485 617.052 495.052 617.254 494.655C617.457 494.258 617.752 493.945 618.14 493.705C618.527 493.465 618.997 493.345 619.551 493.345C620.104 493.345 620.593 493.465 620.99 493.696C621.386 493.926 621.672 494.249 621.875 494.637C622.078 495.033 622.179 495.467 622.179 495.937V496.518C622.179 496.979 622.078 497.413 621.875 497.809C621.672 498.206 621.377 498.519 620.99 498.759C620.602 498.999 620.123 499.119 619.56 499.119C618.997 499.119 618.527 498.999 618.14 498.759C617.752 498.519 617.457 498.206 617.264 497.809C617.061 497.413 616.969 496.988 616.969 496.518L616.95 496.527ZM618.813 495.946V496.527C618.813 496.73 618.868 496.933 618.97 497.127C619.071 497.33 619.265 497.422 619.542 497.422C619.837 497.422 620.03 497.33 620.132 497.136C620.224 496.942 620.27 496.739 620.27 496.527V495.946C620.27 495.734 620.224 495.522 620.132 495.328C620.04 495.135 619.846 495.024 619.532 495.024C619.247 495.024 619.062 495.125 618.961 495.328C618.859 495.531 618.804 495.734 618.804 495.946H618.813Z" fill="#1F1F1F"/>
<path d="M132.215 383.402H75.3496C72.6755 383.402 70.5078 385.57 70.5078 388.244V497.53C70.5078 500.204 72.6755 502.372 75.3496 502.372H132.215C134.889 502.372 137.057 500.204 137.057 497.53V388.244C137.057 385.57 134.889 383.402 132.215 383.402Z" fill="white" stroke="#1F1F1F" stroke-linecap="round" stroke-linejoin="round"/>
<path d="M114.172 388.125H118.571" stroke="#1F1F1F" stroke-linecap="round" stroke-linejoin="round"/>
<path d="M88.9766 388.125H110.013" stroke="#1F1F1F" stroke-linecap="round" stroke-linejoin="round"/>
<path d="M137.086 397.466H137.925C138.534 397.466 139.023 397.964 139.023 398.564V417.543C139.023 418.152 138.525 418.641 137.925 418.641H137.086V397.457V397.466Z" fill="white" stroke="#1F1F1F" stroke-linecap="round" stroke-linejoin="round"/>
<path d="M70.5078 418.651H69.6686C69.0599 418.651 68.5711 418.153 68.5711 417.553V398.574C68.5711 397.965 69.0691 397.476 69.6686 397.476H70.5078V418.66V418.651Z" fill="white" stroke="#1F1F1F" stroke-linecap="round" stroke-linejoin="round"/>
<path d="M137.086 421.326H137.925C138.534 421.326 139.023 421.824 139.023 422.423V441.403C139.023 442.012 138.525 442.5 137.925 442.5H137.086V421.316V421.326Z" fill="white" stroke="#1F1F1F" stroke-linecap="round" stroke-linejoin="round"/>
<path d="M137.009 392.098H70.4141V492.871H137.009V392.098Z" fill="#FF5442" stroke="#1F1F1F" stroke-linecap="round" stroke-linejoin="round"/>
<path d="M160.282 564.551C160.282 564.551 160.89 557.21 140.352 556.952C125.578 556.767 90.0069 552.414 90.6894 562.559C91.3626 572.713 137.226 583.688 145.627 583.328C154.029 582.968 159.765 572.528 160.282 564.551Z" fill="#1F1F1F" stroke="#1F1F1F" stroke-linecap="round" stroke-linejoin="round"/>
<path d="M99.8828 497.344H107.685" stroke="#1F1F1F" stroke-linecap="round" stroke-linejoin="round"/>
<path d="M113.219 580.938C113.219 580.938 116.889 562.881 112.896 553.105C101.801 541.457 100.593 539.087 95.6592 528.509C90.7252 517.94 87.8478 509.658 84.9888 502.363C82.8308 496.156 83.836 497.982 80.9863 493.297C78.1366 488.612 71.5241 483.346 76.2828 481.779C81.0508 480.211 89.9136 483.808 93.3997 493.952C93.8885 487.284 92.2284 473.156 92.0809 470.352C91.9333 467.548 92.5604 462.024 92.9109 461.056C94.5986 456.306 97.1993 445.654 97.9002 442.583C99.3574 436.238 98.3429 428.796 103.231 428.445C106.846 428.648 109.354 433.13 108.792 439.872C108.174 447.877 104.291 467.355 104.291 467.355L107.427 488.474C107.427 488.474 115.598 461.213 118.927 459.608C122.257 458.003 126.647 456.583 128.795 463.048C130.935 469.513 131.913 474.963 131.913 474.963C131.913 474.963 136.468 466.008 139.3 466.23C142.122 466.442 147.166 468.747 147.462 471.606C147.757 474.474 146.346 483.512 146.346 483.512C146.346 483.512 149.435 478.892 152.211 478.385C154.987 477.878 158.888 481.631 159.534 485.348C160.179 489.064 160.548 495.04 156.094 498.923C155.457 499.476 151.685 501.782 151.326 505.167C150.966 508.551 154.839 524.469 156.278 534.079C157.717 543.698 152.884 551.463 152.884 551.463C152.884 551.463 151.999 582.238 153.207 583.982C154.415 585.725 134.181 589.063 113.209 580.947L113.219 580.938Z" fill="#1F1F1F" stroke="#F7F7F7" stroke-linecap="round" stroke-linejoin="round"/>
<path d="M128.083 467.07L124.256 483.311L119.414 488.522L131.929 474.956" fill="#1F1F1F"/>
<path d="M128.083 467.07L124.256 483.311L119.414 488.522L131.929 474.956" stroke="#F7F7F7" stroke-linecap="round" stroke-linejoin="round"/>
<path d="M93.403 493.941C93.403 493.941 92.5453 500.139 94.316 506.014C96.0867 511.888 100.135 515.706 101.279 523.084C101.814 526.552 104.433 530.923 107.052 534.585" fill="#1F1F1F"/>
<path d="M93.403 493.941C93.403 493.941 92.5453 500.139 94.316 506.014C96.0867 511.888 100.135 515.706 101.279 523.084C101.814 526.552 104.433 530.923 107.052 534.585" stroke="#F7F7F7" stroke-linecap="round" stroke-linejoin="round"/>
<path d="M133.492 493.732L146.367 483.504" stroke="#F7F7F7" stroke-linecap="round" stroke-linejoin="round"/>
<path d="M151.344 505.149C151.344 505.149 151.279 495.226 154.858 490.273L151.344 505.149Z" fill="#1F1F1F"/>
<path d="M151.344 505.149C151.344 505.149 151.279 495.226 154.858 490.273" stroke="#F7F7F7" stroke-linecap="round" stroke-linejoin="round"/>
<path d="M96.8047 502.27C97.69 503.275 101.305 506.659 101.305 506.659L96.8047 502.27Z" fill="#1F1F1F"/>
<path d="M96.8047 502.27C97.69 503.275 101.305 506.659 101.305 506.659" stroke="#F7F7F7" stroke-linecap="round" stroke-linejoin="round"/>
<path d="M80.9847 493.288L83.2165 490.393L76.2812 481.77" fill="#1F1F1F"/>
<path d="M80.9847 493.288L83.2165 490.393L76.2812 481.77" stroke="#F7F7F7" stroke-linecap="round" stroke-linejoin="round"/>
<path d="M147.455 474.328L138.094 490.071" stroke="#F7F7F7" stroke-linecap="round" stroke-linejoin="round"/>
<path d="M104.301 467.356C104.301 467.356 103.997 465.696 100.797 462.727L104.301 467.356Z" fill="#1F1F1F"/>
<path d="M104.301 467.356C104.301 467.356 103.997 465.696 100.797 462.727" stroke="#F7F7F7" stroke-linecap="round" stroke-linejoin="round"/>
<path d="M98.4453 439.449C98.4453 439.449 101.304 437.347 105.049 438.61C105.731 435.622 106.561 433.234 106.662 430.301" fill="#1F1F1F"/>
<path d="M98.4453 439.449C98.4453 439.449 101.304 437.347 105.049 438.61C105.731 435.622 106.561 433.234 106.662 430.301" stroke="#F7F7F7" stroke-linecap="round" stroke-linejoin="round"/>
<path d="M103.543 440.749C103.543 440.749 100.648 439.08 99.2734 440.832L103.543 440.749Z" fill="#1F1F1F"/>
<path d="M103.543 440.749C103.543 440.749 100.648 439.08 99.2734 440.832" stroke="#F7F7F7" stroke-linecap="round" stroke-linejoin="round"/>
<path d="M162.02 596.697C162.085 583.537 161.107 572.35 160.286 564.548C160.286 564.548 159.991 577.709 135.247 575.043C110.504 572.387 95.6185 566.881 90.703 562.547C88.3605 571.4 86.2301 578.926 84.3672 585.151" fill="white"/>
<path d="M162.02 596.697C162.085 583.537 161.107 572.35 160.286 564.548C160.286 564.548 159.991 577.709 135.247 575.043C110.504 572.387 95.6185 566.881 90.703 562.547C88.3605 571.4 86.2301 578.926 84.3672 585.151" stroke="#1F1F1F" stroke-linecap="round" stroke-linejoin="round"/>
<path d="M90.9844 436.025C90.9844 428.656 96.9605 422.68 104.329 422.68C111.698 422.68 117.674 428.656 117.674 436.025C117.674 440.101 115.848 443.753 112.961 446.206" stroke="white" stroke-linecap="round" stroke-linejoin="round"/>
<path d="M83.4531 436.274C83.4531 424.746 92.8047 415.395 104.333 415.395C115.861 415.395 125.212 424.746 125.212 436.274C125.212 442.656 122.353 448.365 117.834 452.201" stroke="white" stroke-linecap="round" stroke-linejoin="round"/>
<path d="M497.976 52.0859H437.513C426.853 52.0859 418.211 60.728 418.211 71.3885V154.003C418.211 164.663 426.853 173.305 437.513 173.305H497.976C508.636 173.305 517.278 164.663 517.278 154.003V71.3885C517.278 60.728 508.636 52.0859 497.976 52.0859Z" fill="#1F1F1F"/>
<path d="M501.784 62.1133H433.704C430.455 62.1133 427.82 64.7476 427.82 67.9972V157.399C427.82 160.649 430.455 163.283 433.704 163.283H501.784C505.034 163.283 507.668 160.649 507.668 157.399V67.9972C507.668 64.7476 505.034 62.1133 501.784 62.1133Z" fill="white" stroke="#1F1F1F" stroke-linecap="round" stroke-linejoin="round"/>
<path d="M482.899 58.6175H476.305C476.305 54.1908 472.708 50.594 468.282 50.594C463.855 50.594 460.258 54.1908 460.258 58.6175H453.664C453.664 50.5571 460.221 44 468.282 44C476.342 44 482.899 50.5571 482.899 58.6175Z" fill="#FF5442" stroke="#1F1F1F" stroke-linecap="round" stroke-linejoin="round"/>
<path d="M485.658 57.5859H449.847C446.053 57.5859 442.977 60.6621 442.977 64.4566C442.977 68.2512 446.053 71.3273 449.847 71.3273H485.658C489.453 71.3273 492.529 68.2512 492.529 64.4566C492.529 60.6621 489.453 57.5859 485.658 57.5859Z" fill="#FF5442" stroke="#1F1F1F" stroke-linecap="round" stroke-linejoin="round"/>
<path d="M455.039 68.0508H482.9" stroke="#1F1F1F" stroke-linecap="round" stroke-linejoin="round"/>
<path d="M440.129 127.344H458.73C459.79 127.344 460.648 126.487 460.648 125.43C460.648 124.373 459.79 123.516 458.73 123.516H440.129C439.069 123.516 438.21 124.373 438.21 125.43C438.21 126.487 439.069 127.344 440.129 127.344Z" fill="#FF5442"/>
<path d="M439.69 114.027H495.246C496.305 114.027 497.164 113.171 497.164 112.114C497.164 111.057 496.305 110.2 495.246 110.2H439.69C438.631 110.2 437.772 111.057 437.772 112.114C437.772 113.171 438.631 114.027 439.69 114.027Z" fill="#FF5442"/>
<path d="M439.69 100.691H495.246C496.305 100.691 497.164 99.8346 497.164 98.7778C497.164 97.7209 496.305 96.8641 495.246 96.8641H439.69C438.631 96.8641 437.772 97.7209 437.772 98.7778C437.772 99.8346 438.631 100.691 439.69 100.691Z" fill="#FF5442"/>
<path d="M439.69 87.3711H495.246C496.305 87.3711 497.164 86.5143 497.164 85.4574C497.164 84.4006 496.305 83.5438 495.246 83.5438H439.69C438.631 83.5438 437.772 84.4006 437.772 85.4574C437.772 86.5143 438.631 87.3711 439.69 87.3711Z" fill="#FF5442"/>
<path d="M427.82 142.586H443.268C446.164 142.586 448.515 144.938 448.515 147.833V163.281L427.82 142.586Z" fill="#F7F7F7" stroke="#1F1F1F" stroke-linecap="round" stroke-linejoin="round"/>
</svg>
